<?xml version="1.0" encoding="UTF-8"?>
<svg id="svg460" width="1024" height="768" version="1.1" viewBox="0 0 270.93 203.2" xmlns="http://www.w3.org/2000/svg" xmlns:cc="http://creativecommons.org/ns#" xmlns:dc="http://purl.org/dc/elements/1.1/" xmlns:rdf="http://www.w3.org/1999/02/22-rdf-syntax-ns#" xmlns:xlink="http://www.w3.org/1999/xlink">
 <style id="style10"/>
 <metadata id="metadata12">
  <rdf:RDF>
   <cc:Work rdf:about="">
    <dc:format>image/svg+xml</dc:format>
    <dc:type rdf:resource="http://purl.org/dc/dcmitype/StillImage"/>
    <dc:title/>
   </cc:Work>
  </rdf:RDF>
 </metadata>
 <defs id="defs88">
  <path id="01d" d="m256 132.41c68.414 0 123.59 55.614 123.59 123.59s-55.614 123.59-123.59 123.59-123.59-55.614-123.59-123.59 55.172-123.59 123.59-123.59zm0 211.42c48.552 0 87.834-39.282 87.834-87.834s-39.282-87.834-87.834-87.834-87.834 39.282-87.834 87.834 39.282 87.834 87.834 87.834zm18.097 93.132v56.937c0 10.152-7.945 18.097-18.097 18.097s-18.097-7.945-18.097-18.097v-56.937c0-10.152 7.945-18.097 18.097-18.097s18.097 7.945 18.097 18.097zm-36.194-361.93v-56.937c0-10.152 7.945-18.097 18.097-18.097s18.097 7.945 18.097 18.097v56.937c0 10.152-7.945 18.097-18.097 18.097s-18.097-7.945-18.097-18.097zm158.9 296.17 40.166 40.166c7.062 7.062 7.062 18.537 0 25.6-7.063 7.062-18.538 7.062-25.6 0l-40.166-40.166c-7.062-7.062-7.062-18.538 0-25.6 3.531-3.531 7.945-5.297 12.8-5.297s9.269 1.766 12.8 5.297zm-321.77-296.17c3.532-3.531 7.945-5.296 12.8-5.296 4.414 0 9.269 1.765 12.8 5.296l40.166 40.166c7.062 7.062 7.062 18.538 0 25.6s-18.538 7.062-25.6 0l-40.166-40.166c-7.062-7.062-7.062-18.537 0-25.6zm436.97 180.97c0 10.152-7.945 18.097-18.097 18.097h-56.937c-10.152 0-18.097-7.945-18.097-18.097s7.945-18.097 18.097-18.097h56.937c9.711 0 18.097 7.945 18.097 18.097zm-493.9-18.097h56.937c10.152 0 18.097 7.945 18.097 18.097s-7.945 18.097-18.097 18.097h-56.937c-10.152 0-18.097-7.945-18.097-18.097s8.386-18.097 18.097-18.097zm406.07-168.16c4.413 0 9.268 1.765 12.8 5.296 7.062 7.063 7.062 18.538 0 25.6l-40.166 40.166c-7.062 7.062-18.538 7.062-25.6 0s-7.062-18.538 0-25.6l40.166-40.166c3.531-3.531 8.386-5.296 12.8-5.296zm-283.37 301.46c7.062 7.062 7.062 18.538 0 25.6l-40.166 40.166c-7.062 7.062-18.537 7.062-25.6 0-7.062-7.063-7.062-18.538 0-25.6l40.166-40.166c3.531-3.531 7.945-5.297 12.8-5.297s9.269 1.766 12.8 5.297z"/>
  <path id="01n" d="m337.56 322.75-5.023-29.292c-0.774-4.498 1.039-8.957 4.723-11.628 2.044-1.487 4.46-2.273 6.99-2.273 1.922 0 3.836 0.474 5.532 1.366l26.311 13.831 26.297-13.826c1.701-0.897 3.618-1.372 5.544-1.372 2.521 0 4.933 0.782 6.988 2.269 3.69 2.682 5.503 7.139 4.729 11.627l-5.024 29.297 21.284 20.748c3.267 3.185 4.419 7.858 3.008 12.181-1.407 4.337-5.083 7.439-9.597 8.094l-29.416 4.275-13.156 26.66c-2.018 4.083-6.102 6.62-10.656 6.62-4.561 0-8.646-2.54-10.659-6.626l-13.157-26.655-29.415-4.275c-4.506-0.654-8.182-3.752-9.598-8.092-1.406-4.33-0.255-8.996 3.009-12.185l21.286-20.744zm21.26 29.879c2.639 0.383 4.919 2.04 6.1 4.431l11.173 22.637 11.171-22.636c1.178-2.391 3.46-4.048 6.099-4.431l24.984-3.631-18.077-17.621c-1.908-1.861-2.78-4.541-2.33-7.169l4.267-24.881-22.345 11.748c-1.18 0.62-2.474 0.93-3.769 0.93s-2.59-0.31-3.771-0.932l-22.344-11.746 4.266 24.88c0.451 2.628-0.42 5.309-2.329 7.17l-18.079 17.62 24.984 3.631zm87.077-270.12c-8.289-0.9-16.654-1.355-24.864-1.355-54.194 0-106.7 19.349-147.86 54.483-3.402 2.904-8.516 2.499-11.419-0.902-2.904-3.403-2.5-8.516 0.902-11.42 44.087-37.636 100.33-58.363 158.38-58.363 0.631 0 1.264 3e-3 1.896 8e-3 -41.552-31.591-92.19-48.759-144.94-48.759-132.23 0-239.8 107.58-239.8 239.8 0 127.34 99.772 231.82 225.25 239.36-54.546-46.16-86.47-114.16-86.47-186.35 0-62.645 23.698-122.2 66.728-167.69 3.073-3.25 8.199-3.392 11.451-0.318 3.25 3.075 3.392 8.2 0.318 11.451-40.173 42.469-62.297 98.068-62.297 156.55 0 75.138 37.048 145.42 99.105 188 2.878 1.975 4.167 5.574 3.198 8.928s-3.98 5.71-7.468 5.845c-3.706 0.143-6.982 0.212-10.016 0.212-68.382 0-132.67-26.629-181.02-74.98-48.352-48.352-74.98-112.64-74.98-181.02s26.628-132.67 74.98-181.02c48.351-48.353 112.64-74.982 181.02-74.982 64.888 0 126.79 24.335 174.3 68.523 2.555 2.377 3.303 6.122 1.851 9.297-1.45 3.175-4.764 5.062-8.24 4.687zm-118.43 104.25c0-18.137 14.757-32.893 32.895-32.893 18.137 0 32.893 14.756 32.893 32.893 0 18.138-14.756 32.894-32.893 32.894-18.138 0-32.895-14.756-32.895-32.894zm49.588 0c0-9.205-7.489-16.693-16.693-16.693-9.206 0-16.695 7.489-16.695 16.693s7.49 16.694 16.695 16.694 16.693-7.488 16.693-16.694zm95.646 69.238c-9.561 0-17.313-7.75-17.313-17.314 0-9.563 7.751-17.315 17.313-17.315 9.565 0 17.315 7.752 17.315 17.315 0 9.565-7.75 17.314-17.315 17.314z"/>
  <path id="02d" d="m326.4 467.2c-10.605 0-19.2-8.596-19.2-19.2v-12.8c0-10.604 8.595-19.2 19.2-19.2 10.602 0 19.2 8.596 19.2 19.2v12.8c0 10.604-8.598 19.2-19.2 19.2zm96-185.6c0 52.934-43.066 96-96 96-20.945 0-40.852-6.629-57.571-19.172-10.115-7.589-18.657-17.195-25.083-28.035-14.103 5.665-29.432 8.755-45.348 8.755-65.188 0-118.56-51.56-121.47-116.04-43.427-6.172-76.926-43.6-76.926-88.706 0-49.407 40.195-89.6 89.6-89.6h224c59.992 0 108.8 48.808 108.8 108.8 0 24.882-8.415 47.823-22.523 66.173 14.486 17.124 22.523 38.792 22.523 61.827zm-108.8-198.4h-224c-28.23 0-51.2 22.968-51.2 51.2s22.97 51.2 51.2 51.2h6.4c10.605 0 19.2 8.596 19.2 19.2v12.749c0 45.878 37.325 83.2 83.2 83.2 37.97 0 71.1-25.637 80.567-62.344 2.188-8.48 9.836-14.405 18.592-14.405h16.041c38.82 0 70.4-31.581 70.4-70.4s-31.58-70.4-70.4-70.4zm57.843 162.48c-16.77 10.572-36.595 16.716-57.843 16.716h-2.132c-7.541 19.06-19.654 35.523-34.843 48.269 10.13 17.464 28.82 28.531 49.775 28.531 31.761 0 57.6-25.838 57.6-57.6 0-13.297-4.475-25.83-12.557-35.916zm121.36 55.116h-12.8c-10.605 0-19.2-8.596-19.2-19.2s8.595-19.2 19.2-19.2h12.8c10.602 0 19.2 8.596 19.2 19.2s-8.598 19.2-19.2 19.2zm-35.163 112.04c-7.497 7.496-19.654 7.496-27.153-3e-3l-9.05-9.051c-7.497-7.498-7.497-19.656 3e-3 -27.154 3.748-3.748 8.66-5.623 13.574-5.623 4.913 0 9.828 1.875 13.577 5.626l9.05 9.051c7.5 7.5 7.5 19.657-1e-3 27.154zm-226.27-9.052-9.05 9.05c-7.5 7.497-19.654 7.498-27.155 0-7.497-7.497-7.497-19.653 0-27.153l9.051-9.05c3.75-3.75 8.663-5.626 13.577-5.626 4.913 0 9.828 1.875 13.574 5.624 7.5 7.498 7.5 19.654 3e-3 27.155z"/>
  <path id="02n" d="m513.49 206.59c-1.717 4.146-5.514 7.062-9.963 7.654-40.949 5.434-76.186 32.467-91.962 70.551-15.775 38.085-9.976 82.12 15.137 114.92 2.728 3.563 3.352 8.311 1.635 12.458-1.717 4.146-5.514 7.062-9.963 7.652-24.497 3.254-49.54-0.037-72.417-9.512-43.268-17.922-73.74-55.202-83.634-99.002-20.043 22.638-49.579 36.649-81.286 36.649-59.245 0-107.44-47.246-107.44-105.32 0-0.205 0-0.407 2e-3 -0.612-39.739-2.989-71.146-35.674-71.146-75.422 0-41.708 34.581-75.639 77.088-75.639h206.8c37.259 0 69.717 20.509 86.269 50.615 9.123-1.822 18.308-2.745 27.473-2.745 18.282 0 36.47 3.622 53.844 10.818 22.877 9.477 42.909 24.857 57.934 44.479 2.728 3.561 3.352 8.31 1.633 12.456zm-227.16-90.473h-206.8c-28.639 0-51.938 22.65-51.938 50.489 0 27.841 23.299 50.493 51.938 50.493 1.767 0 3.733-0.132 6.18-0.419 3.885-0.459 7.753 0.922 10.478 3.726 2.723 2.801 3.989 6.711 3.425 10.579-0.581 3.989-0.877 7.911-0.877 11.655 0 44.204 36.917 80.167 82.295 80.167 35.993 0 68.312-23.377 78.736-56.888 0.134-0.471 0.297-0.929 0.483-1.375 2.188-5.421 7.879-8.68 13.734-7.688 4.057 0.681 8.21 1.025 12.345 1.025 40.138 0 72.791-31.798 72.791-70.881 0-39.085-32.653-70.883-72.791-70.883zm157.96 56.774c-20.074-8.315-41.455-10.802-62.528-7.401 1.622 6.919 2.509 14.112 2.509 21.508 0 52.953-43.937 96.031-97.941 96.031-0.765 0-1.529-0.052-2.294-0.068 1.09 45.499 28.678 86.358 71.54 104.11 12.364 5.122 25.499 8.043 38.766 8.683-19.711-36.918-22.274-81.342-6.017-120.59 16.253-39.239 49.482-68.841 89.521-81.008-9.837-8.928-21.19-16.148-33.556-21.27z" horiz-adv-x="514.451"/>
  <path id="03d" d="m320 384c52.562 0 95.375-42.438 96-94.813-0.25-1.938-0.438-3.875-0.5-5.875l-0.812-23.5 22.25-7.75c25.75-8.968 43.062-33.124 43.062-60.062 0-35.312-28.688-64-64-64h-320c-35.281 0-64 28.688-64 64 0 34.938 28.188 63.438 63 64 1.5-0.219 3.063-0.406 4.625-0.5l24.313-1.594 8 22.969c9 25.812 33.125 43.125 60.062 43.125 3.125 0 6.563-0.375 11.188-1.188l22.406-4.031 11.156 19.844c17.125 30.437 49 49.375 83.25 49.375m0 32c-47.938 0-89.219-26.688-111.16-65.688-5.469 0.969-11.063 1.688-16.844 1.688-41.938 0-77.219-27.063-90.281-64.563-1.906 0.125-3.75 0.563-5.719 0.563-53 0-96-43-96-96s43-96 96-96h320c53 0 96 43 96 96 0 41.938-27.062 77.25-64.562 90.313 0.062 1.937 0.562 3.749 0.562 5.687 0 70.687-57.312 128-128 128z"/>
  <path id="03n" d="m320 384c52.562 0 95.375-42.438 96-94.813-0.25-1.938-0.438-3.875-0.5-5.875l-0.812-23.5 22.25-7.75c25.75-8.968 43.062-33.124 43.062-60.062 0-35.312-28.688-64-64-64h-320c-35.281 0-64 28.688-64 64 0 34.938 28.188 63.438 63 64 1.5-0.219 3.063-0.406 4.625-0.5l24.313-1.594 8 22.969c9 25.812 33.125 43.125 60.062 43.125 3.125 0 6.563-0.375 11.188-1.188l22.406-4.031 11.156 19.844c17.125 30.437 49 49.375 83.25 49.375m0 32c-47.938 0-89.219-26.688-111.16-65.688-5.469 0.969-11.063 1.688-16.844 1.688-41.938 0-77.219-27.063-90.281-64.563-1.906 0.125-3.75 0.563-5.719 0.563-53 0-96-43-96-96s43-96 96-96h320c53 0 96 43 96 96 0 41.938-27.062 77.25-64.562 90.313 0.062 1.937 0.562 3.749 0.562 5.687 0 70.687-57.312 128-128 128z"/>
  <path id="04d" d="m320 384c52.562 0 95.375-42.438 96-94.813-0.25-1.938-0.438-3.875-0.5-5.875l-0.812-23.5 22.25-7.75c25.75-8.968 43.062-33.124 43.062-60.062 0-35.312-28.688-64-64-64h-320c-35.281 0-64 28.688-64 64 0 34.938 28.188 63.438 63 64 1.5-0.219 3.063-0.406 4.625-0.5l24.313-1.594 8 22.969c9 25.812 33.125 43.125 60.062 43.125 3.125 0 6.563-0.375 11.188-1.188l22.406-4.031 11.156 19.844c17.125 30.437 49 49.375 83.25 49.375m0 32c-47.938 0-89.219-26.688-111.16-65.688-5.469 0.969-11.063 1.688-16.844 1.688-41.938 0-77.219-27.063-90.281-64.563-1.906 0.125-3.75 0.563-5.719 0.563-53 0-96-43-96-96s43-96 96-96h320c53 0 96 43 96 96 0 41.938-27.062 77.25-64.562 90.313 0.062 1.937 0.562 3.749 0.562 5.687 0 70.687-57.312 128-128 128z"/>
  <path id="04n" d="m320 384c52.562 0 95.375-42.438 96-94.813-0.25-1.938-0.438-3.875-0.5-5.875l-0.812-23.5 22.25-7.75c25.75-8.968 43.062-33.124 43.062-60.062 0-35.312-28.688-64-64-64h-320c-35.281 0-64 28.688-64 64 0 34.938 28.188 63.438 63 64 1.5-0.219 3.063-0.406 4.625-0.5l24.313-1.594 8 22.969c9 25.812 33.125 43.125 60.062 43.125 3.125 0 6.563-0.375 11.188-1.188l22.406-4.031 11.156 19.844c17.125 30.437 49 49.375 83.25 49.375m0 32c-47.938 0-89.219-26.688-111.16-65.688-5.469 0.969-11.063 1.688-16.844 1.688-41.938 0-77.219-27.063-90.281-64.563-1.906 0.125-3.75 0.563-5.719 0.563-53 0-96-43-96-96s43-96 96-96h320c53 0 96 43 96 96 0 41.938-27.062 77.25-64.562 90.313 0.062 1.937 0.562 3.749 0.562 5.687 0 70.687-57.312 128-128 128z"/>
  <path id="09d" d="m431.4 370.45c0.588 5 1.149 10.791 1.149 15.038 0 69.76-56.187 126.51-125.24 126.51-43.95 0-84.497-23.428-107.04-60.81-13.993 9.68-30.547 14.873-47.858 14.873-46.889 0-85.039-38.541-85.039-85.914 0-5.212 0.476-10.41 1.385-15.514-40.264-14.736-67.468-53.3-67.468-97.557 0-56.323 44.186-98.786 102.79-98.786h294.24c56.677 0 102.79 46.573 102.79 103.82 5e-3 44.492-28.733 84.215-69.708 98.339zm-33.075-178.4h-294.24c-45.193 0-79.266 32.265-79.266 75.029 0 37.288 25.019 69.313 60.843 77.905 3.225 0.758 5.979 2.858 7.58 5.787 1.61 2.928 1.912 6.398 0.866 9.562-2.128 6.356-3.201 13.013-3.201 19.812 0 34.27 27.594 62.133 61.502 62.133 16.295 0 31.662-6.375 43.254-17.947 2.74-2.717 6.624-3.969 10.405-3.216 3.795 0.687 6.991 3.239 8.583 6.756 16.459 36.658 52.844 60.34 92.66 60.34 56.074 0 101.7-46.07 101.7-102.73 0-5.829-1.643-17.712-2.269-21.799-0.956-6.205 2.999-12.086 9.044-13.456 35.81-8.102 61.813-40.951 61.813-78.122-9e-3 -44.139-35.556-80.057-79.271-80.057zm-266.14-56.813c-6.46 0.89-12.387-3.62-13.296-10.108l-7.853-56.135c-0.904-6.493 3.583-12.515 10.005-13.437 0.565-0.076 1.12-0.099 1.666-0.099 5.777 0 10.805 4.265 11.644 10.202l7.839 56.135c0.908 6.493-3.583 12.51-10.005 13.442zm81.38 0c-6.46 0.89-12.387-3.62-13.296-10.108l-15.692-111.58c-0.909-6.493 3.569-12.514 9.991-13.437 0.565-0.099 1.12-0.113 1.671-0.113 5.767 0 10.796 4.27 11.634 10.198l15.692 111.59c0.909 6.507-3.559 12.496-10 13.456zm84.29 0c-6.451 0.89-12.406-3.62-13.31-10.108l-15.678-111.58c-0.923-6.493 3.554-12.514 9.986-13.437 0.569-0.099 1.115-0.113 1.666-0.113 5.768 0 10.805 4.27 11.634 10.198l15.688 111.59c0.908 6.507-3.56 12.496-9.986 13.456zm81.37 0c-6.483 0.89-12.387-3.62-13.296-10.108l-7.853-56.135c-0.894-6.493 3.578-12.515 10.014-13.437 0.551-0.076 1.102-0.099 1.653-0.099 5.782 0 10.805 4.265 11.648 10.202l7.844 56.135c0.894 6.493-3.593 12.51-10.01 13.442z"/>
  <path id="09n" d="m431.4 370.45c0.588 5 1.149 10.791 1.149 15.038 0 69.76-56.187 126.51-125.24 126.51-43.95 0-84.497-23.428-107.04-60.81-13.993 9.68-30.547 14.873-47.858 14.873-46.889 0-85.039-38.541-85.039-85.914 0-5.212 0.476-10.41 1.385-15.514-40.264-14.736-67.468-53.3-67.468-97.557 0-56.323 44.186-98.786 102.79-98.786h294.24c56.677 0 102.79 46.573 102.79 103.82 5e-3 44.492-28.733 84.215-69.708 98.339zm-33.075-178.4h-294.24c-45.193 0-79.266 32.265-79.266 75.029 0 37.288 25.019 69.313 60.843 77.905 3.225 0.758 5.979 2.858 7.58 5.787 1.61 2.928 1.912 6.398 0.866 9.562-2.128 6.356-3.201 13.013-3.201 19.812 0 34.27 27.594 62.133 61.502 62.133 16.295 0 31.662-6.375 43.254-17.947 2.74-2.717 6.624-3.969 10.405-3.216 3.795 0.687 6.991 3.239 8.583 6.756 16.459 36.658 52.844 60.34 92.66 60.34 56.074 0 101.7-46.07 101.7-102.73 0-5.829-1.643-17.712-2.269-21.799-0.956-6.205 2.999-12.086 9.044-13.456 35.81-8.102 61.813-40.951 61.813-78.122-9e-3 -44.139-35.556-80.057-79.271-80.057zm-266.14-56.813c-6.46 0.89-12.387-3.62-13.296-10.108l-7.853-56.135c-0.904-6.493 3.583-12.515 10.005-13.437 0.565-0.076 1.12-0.099 1.666-0.099 5.777 0 10.805 4.265 11.644 10.202l7.839 56.135c0.908 6.493-3.583 12.51-10.005 13.442zm81.38 0c-6.46 0.89-12.387-3.62-13.296-10.108l-15.692-111.58c-0.909-6.493 3.569-12.514 9.991-13.437 0.565-0.099 1.12-0.113 1.671-0.113 5.767 0 10.796 4.27 11.634 10.198l15.692 111.59c0.909 6.507-3.559 12.496-10 13.456zm84.29 0c-6.451 0.89-12.406-3.62-13.31-10.108l-15.678-111.58c-0.923-6.493 3.554-12.514 9.986-13.437 0.569-0.099 1.115-0.113 1.666-0.113 5.768 0 10.805 4.27 11.634 10.198l15.688 111.59c0.908 6.507-3.56 12.496-9.986 13.456zm81.37 0c-6.483 0.89-12.387-3.62-13.296-10.108l-7.853-56.135c-0.894-6.493 3.578-12.515 10.014-13.437 0.551-0.076 1.102-0.099 1.653-0.099 5.782 0 10.805 4.265 11.648 10.202l7.844 56.135c0.894 6.493-3.593 12.51-10.01 13.442z"/>
  <path id="10d" d="m98.59 109.28c-6.313 0.835-12.242-3.598-13.144-10.021l-6.023-43.167c-0.893-6.451 3.536-12.432 9.901-13.343 0.551-0.071 1.097-0.114 1.643-0.114 5.691 0 10.68 4.258 11.501 10.149l6.014 43.167c0.893 6.451-3.536 12.403-9.892 13.329zm62.382 0c-6.323 0.897-12.237-3.57-13.153-10.021l-12.024-85.812c-0.892-6.451 3.527-12.422 9.883-13.333 0.56-0.1 1.106-0.119 1.657-0.119 5.691 0 10.68 4.244 11.496 10.125l12.024 85.831c0.902 6.422-3.527 12.403-9.883 13.329zm64.594 0c-6.356 0.897-12.261-3.57-13.153-10.021l-12.024-85.812c-0.902-6.451 3.513-12.422 9.883-13.333 0.546-0.1 1.106-0.119 1.642-0.119 5.701 0 10.681 4.244 11.511 10.125l12.024 85.831c0.892 6.422-3.527 12.403-9.883 13.329zm62.358 0c-6.332 0.835-12.251-3.598-13.148-10.021l-6.01-43.167c-0.906-6.451 3.522-12.432 9.883-13.343 0.56-0.071 1.101-0.114 1.642-0.114 5.701 0 10.69 4.258 11.516 10.149l6.014 43.167c0.897 6.451-3.541 12.403-9.897 13.329zm129.99 231.93c-9.199 52.694-58.954 87.953-110.93 78.668-18.954-3.394-35.957-12.208-49.633-25.594-7.514 1.946-15.346 3.09-23.449 3.09-32.297 0-62.168-16.737-79.536-43.642-10.201 6.356-21.987 9.764-34.248 9.764-36.095 0-65.453-29.767-65.453-66.336 0-3.19 0.213-6.356 0.655-9.474-29.468-11.91-49.205-40.832-49.205-73.884 0-43.228 33.74-75.848 78.487-75.848h216.17c43.271 0 78.483 35.696 78.483 79.575 0 8.681-1.457 17.116-4.092 25.063 32.141 20.838 49.523 59.851 42.754 98.618zm-117.14-179.69h-216.17c-31.49 0-55.223 22.476-55.223 52.285 0 26.074 17.425 48.479 42.379 54.484 3.19 0.764 5.905 2.838 7.5 5.739 1.58 2.905 1.894 6.36 0.859 9.503-1.467 4.357-2.188 8.952-2.188 13.642 0 23.572 18.93 42.763 42.189 42.763 11.178 0 21.711-4.381 29.676-12.36 2.701-2.687 6.546-3.902 10.277-3.19 3.75 0.693 6.916 3.214 8.487 6.712 11.606 25.931 37.263 42.692 65.344 42.692 39.56 0 71.733-32.596 71.733-72.692 0-3.659-0.992-11.33-1.647-15.593-0.954-6.142 2.967-11.976 8.943-13.333 24.949-5.692 43.068-28.671 43.068-54.645 0-30.887-24.774-56.007-55.229-56.007zm63.735 102.16c-8.948 12.683-21.46 22.732-36.213 28.371 0.332 3.143 0.593 6.432 0.593 9.048 0 35.425-19.02 66.359-47.197 83.082 8.663 6.266 18.579 10.538 29.345 12.465 39.421 7.097 77.03-19.642 83.974-59.548 5.008-28.571-7.362-57.355-30.502-73.418zm-40.67 191.63h0.071c6.427 0.053 11.591 5.36 11.558 11.886l-0.214 33.095c-0.052 6.47-5.245 11.71-11.629 11.71h-0.076c-6.427-0.047-11.596-5.359-11.563-11.881l0.213-33.095c0.053-6.479 5.241-11.715 11.64-11.715zm170.42-131.95h-0.091l-32.653-0.214c-6.427-0.052-11.591-5.359-11.558-11.857 0.052-6.503 5.24-11.715 11.63-11.715h0.076l32.662 0.214c6.427 0.047 11.596 5.359 11.563 11.857-0.047 6.498-5.236 11.715-11.629 11.715zm-66.294 89.761c3 0 6 1.163 8.269 3.522l22.946 23.549c4.514 4.623 4.457 12.095-0.104 16.666-4.557 4.571-11.92 4.552-16.439-0.095l-22.941-23.572c-4.523-4.624-4.476-12.095 0.095-16.666 2.265-2.26 5.222-3.404 8.174-3.404zm-224.67 3.522c2.274-2.359 5.274-3.522 8.274-3.522 2.952 0 5.905 1.144 8.169 3.408 4.581 4.572 4.619 12.043 0.104 16.666l-22.941 23.573c-4.523 4.647-11.881 4.661-16.438 0.095-4.571-4.572-4.618-12.043-0.104-16.666l22.936-23.554zm220.14-193.24c-4.514 4.647-11.891 4.689-16.438 0.099-4.586-4.576-4.624-12.023-0.105-16.67l22.946-23.573c2.274-2.335 5.269-3.498 8.269-3.498 2.953 0 5.905 1.115 8.169 3.403 4.581 4.571 4.619 12.024 0.105 16.671l-22.946 23.568z"/>
  <path id="10n" d="m114.55 115.98c-6.772 0.889-13.164-3.792-14.129-10.654l-6.468-45.817c-0.964-6.833 3.802-13.163 10.631-14.138 0.594-0.099 1.179-0.118 1.763-0.118 6.135 0 11.486 4.505 12.375 10.754l6.454 45.821c0.969 6.858-3.783 13.173-10.626 14.152zm67.039 0c-6.81 0.951-13.168-3.792-14.138-10.626l-12.921-91.081c-0.979-6.863 3.778-13.178 10.617-14.157 0.598-0.071 1.192-0.119 1.777-0.119 6.111 0 11.462 4.505 12.361 10.759l12.921 91.082c0.969 6.824-3.773 13.163-10.617 14.142zm69.426 0c-6.791 0.951-13.169-3.792-14.133-10.626l-12.922-91.081c-0.979-6.863 3.778-13.178 10.617-14.157 0.594-0.071 1.178-0.119 1.772-0.119 6.117 0 11.468 4.505 12.366 10.759l12.921 91.082c0.974 6.824-3.783 13.163-10.621 14.142zm67.016 0c-6.777 0.889-13.168-3.792-14.124-10.654l-6.453-45.817c-0.984-6.833 3.792-13.163 10.612-14.138 0.598-0.099 1.178-0.118 1.777-0.118 6.126 0 11.477 4.505 12.365 10.754l6.454 45.821c0.969 6.858-3.788 13.173-10.631 14.152zm163.75 277.44c0 0.57-0.029 1.14-0.071 1.687-0.1 5.27-3.446 9.894-8.407 11.633-4.985 1.716-10.474 0.143-13.786-3.93-12.774-15.687-31.679-24.697-51.833-24.697-36.863 0-66.864 30.034-66.864 66.935 0 17.046 6.487 33.328 18.244 45.84 3.612 3.816 4.434 9.486 2.077 14.21-2.367 4.695-7.499 7.48-12.622 6.795-62.911-7.418-105.17-51.657-105.17-110.13 0-0.775 0.095-1.526 0.228-2.267-28.105-2.562-53.558-17.759-68.998-40.836-9.818 5.817-21.062 8.915-32.753 8.915-35.613 0-64.602-29.031-64.602-64.692 0-2.79 0.167-5.555 0.523-8.269-28.504-11.805-47.527-39.643-47.527-71.44 0-42.053 33.204-73.76 77.233-73.76h209.28c42.584 0 77.228 34.687 77.228 77.309 0 18.43-6.71 35.733-17.93 49.295 58.391 10.303 105.75 60.739 105.75 117.4zm-165.06-218.96h-209.28c-29.773 0-52.227 20.947-52.227 48.724 0 24.36 16.485 45.265 40.099 50.892 3.422 0.813 6.34 3.027 8.041 6.126 1.706 3.055 2.029 6.719 0.903 10.06-1.345 4.002-2.039 8.269-2.039 12.632 0 21.86 17.759 39.667 39.596 39.667 10.488 0 20.392-4.078 27.853-11.491 2.903-2.861 7.028-4.173 11.058-3.384 4.03 0.737 7.433 3.407 9.129 7.128 11.035 24.36 35.424 40.095 62.131 40.095 37.6 0 68.185-30.604 68.185-68.242 0-3.436-0.964-10.849-1.558-14.737-1.022-6.529 3.184-12.703 9.604-14.157 23.599-5.289 40.736-26.769 40.736-51.034 0.01-28.827-23.424-52.279-52.232-52.279zm37.514 124.64c-2.276 0-4.391-0.66-6.23-1.725-1.093 0.495-2.176 1.003-3.293 1.445 0.271 2.737 0.475 5.551 0.475 7.841 0 46.021-33.498 84.253-77.343 91.818 0.295 1.055 0.495 2.143 0.495 3.289 0 35.751 20.938 64.692 54.341 78.065-4.486-10.921-6.852-22.692-6.852-34.777 0-50.702 41.221-91.965 91.87-91.965 15.464 0 30.376 3.839 43.588 10.987-14.1-36.901-53.444-64.978-97.051-64.978z"/>
  <path id="11d" d="m411.25 366.33c-5.296 72.883-68.404 130.61-145.21 130.61-60.931 0-114.63-36.029-136.05-90.432-1.489 0.054-2.99 0.079-4.499 0.079-69.194 3e-3 -125.49-56.291-125.49-125.49s56.295-125.49 125.49-125.49h18.241l-2.497-6.383c-1.205-3.088-0.814-6.574 1.059-9.319 1.872-2.739 4.98-4.378 8.294-4.378h100.39v-110.43c0-4.696 3.255-8.765 7.833-9.795 0.735-0.166 1.481-0.245 2.205-0.245 3.814 0 7.382 2.176 9.068 5.735l64.183 135.32c0.822-0.217 1.622-0.507 2.515-0.507 24.95 0 74.814 0.127 75.304 0.144 56.018 2.883 99.911 49.123 99.911 105.27 3e-3 56.567-44.779 102.87-100.75 105.31zm-140.19-296.64v75.879c3e-3 5.543-4.487 10.04-10.037 10.04h-95.727l65.608 167.66v-107.67c0-5.544 4.49-10.04 10.04-10.04h94.559l-64.443-135.87zm140.48 106.12s-41.804-0.107-67.987-0.127l16.887 35.604c1.481 3.114 1.255 6.76-0.589 9.671-1.833 2.909-5.039 4.671-8.48 4.671h-100.39v150.84c0 4.829-3.432 8.97-8.176 9.863-4.746 0.901-9.451-1.712-11.216-6.205l-79.998-204.44-24.472 9e-3 -1.627-9e-3c-58.127 0-105.41 47.288-105.41 105.41 0 58.124 47.285 105.41 105.41 105.41 3.5 0 6.971-0.172 10.392-0.504 4.617-0.481 9.04 2.374 10.51 6.842 16.597 50.247 64.687 84.012 119.65 84.012 69.198 0 125.49-54.045 125.49-120.47 0-5.442 4.333-9.894 9.776-10.034 1.236-0.026 2.449-0.02 3.685-0.014l1.599 0.011c47.049 0 85.333-38.279 85.333-85.333 0-45.455-35.522-82.886-80.383-85.209z"/>
  <path id="11n" d="m411.25 366.33c-5.296 72.883-68.404 130.61-145.21 130.61-60.931 0-114.63-36.029-136.05-90.432-1.489 0.054-2.99 0.079-4.499 0.079-69.194 3e-3 -125.49-56.291-125.49-125.49s56.295-125.49 125.49-125.49h18.241l-2.497-6.383c-1.205-3.088-0.814-6.574 1.059-9.319 1.872-2.739 4.98-4.378 8.294-4.378h100.39v-110.43c0-4.696 3.255-8.765 7.833-9.795 0.735-0.166 1.481-0.245 2.205-0.245 3.814 0 7.382 2.176 9.068 5.735l64.183 135.32c0.822-0.217 1.622-0.507 2.515-0.507 24.95 0 74.814 0.127 75.304 0.144 56.018 2.883 99.911 49.123 99.911 105.27 3e-3 56.567-44.779 102.87-100.75 105.31zm-140.19-296.64v75.879c3e-3 5.543-4.487 10.04-10.037 10.04h-95.727l65.608 167.66v-107.67c0-5.544 4.49-10.04 10.04-10.04h94.559l-64.443-135.87zm140.48 106.12s-41.804-0.107-67.987-0.127l16.887 35.604c1.481 3.114 1.255 6.76-0.589 9.671-1.833 2.909-5.039 4.671-8.48 4.671h-100.39v150.84c0 4.829-3.432 8.97-8.176 9.863-4.746 0.901-9.451-1.712-11.216-6.205l-79.998-204.44-24.472 9e-3 -1.627-9e-3c-58.127 0-105.41 47.288-105.41 105.41 0 58.124 47.285 105.41 105.41 105.41 3.5 0 6.971-0.172 10.392-0.504 4.617-0.481 9.04 2.374 10.51 6.842 16.597 50.247 64.687 84.012 119.65 84.012 69.198 0 125.49-54.045 125.49-120.47 0-5.442 4.333-9.894 9.776-10.034 1.236-0.026 2.449-0.02 3.685-0.014l1.599 0.011c47.049 0 85.333-38.279 85.333-85.333 0-45.455-35.522-82.886-80.383-85.209z"/>
  <path id="1232n" d="m467.4 213c-7.8 8.1-16.6 14.9-26.2 20.4 2.2 1.9 4.3 3.9 6.4 6 23.2 23.2 37.5 52 42.8 82.1 2.7 15.1-15.7 24.6-26.6 13.8-18.2-18.1-43.5-29.1-71.3-28.5-52.3 1.1-95 43.7-96.1 96.1-0.4 27.8 10.6 53.1 28.7 71.3 10.8 10.9 1.3 29.2-13.8 26.6-30.1-5.3-58.9-19.6-82.1-42.8-27.8-27.8-42.8-63.6-45-100-43.3-21.4-75.3-62.7-83.6-112.3-52.2-13.2-89.7-60.2-89.7-115.5-1e-13 -65.7 53.4-119.2 119.1-119.2h251.7c65.7 0 119.1 53.5 119.1 119.2 0.1 31-11.8 60.5-33.4 82.8zm-204.8 219.7c-1.9-8.9-2.9-18.2-2.9-27.7 0-74.6 60.4-135 135-135 9.5 0 18.8 1 27.7 2.9-20.7-22.9-50.7-37.3-84-37.3-62.5 0-113.2 50.7-113.2 113.2 0 33.2 14.4 63.1 37.4 83.9zm119.1-380.6h-251.7c-43 0-78.1 35-78.1 78.1 0 39.9 29.9 73.3 69.5 77.6l17.2 1.9 1.1 17.3c2.2 35.7 20.9 66.7 48.4 85.7 6.4-26.8 20.1-52.3 41-73.2 45.8-45.8 113.2-56.8 169.4-33.1 35.3-7.7 61.2-38.8 61.2-76.2 0.1-43.1-34.9-78.1-78-78.1z"/>
  <path id="13d" d="m426.32 326.18c-11.07 83.636-64.705 144.77-149.56 144.77-71.043 0-110.37-42.814-134.61-109.26-8.857 2.159-17.962 3.238-27.15 3.238-63.461-1e-3 -114.99-55.269-114.99-118.7 0-60.693 49.678-104.72 110.7-108.38h13.838v27.676h-13.838c-44.06 2.629-83.026 36.614-83.026 80.702 0 46.108 41.208 87.288 87.316 87.288 10.793 0 21.394-2.102 31.495-6.172l16.688-6.808 4.511 17.409c15.609 60.72 46.412 104.92 109.07 104.92 73.589 0 116.18-59.42 119.48-132.98l0.72-15.969 19.097 1.384c35.59 0 68.303-27.565 68.303-63.1 0-35.564-33.599-66.644-69.19-66.644h-41.513v-27.675h41.485c52.916 0 96.865 41.458 96.865 94.319-1e-3 48.931-37.363 88.811-85.685 93.986zm-91.467-109.26-13.727-8.331 1.245 14.115-21.698 2.131-2.74-30.278-37.916-22.97v45.942l23.608 17.629-12.62 18.681-10.988-8.22v16.66h-21.863v-16.66l-10.959 8.22-12.648-18.708 23.635-17.629v-45.969l-37.915 22.97-2.74 30.278-21.698-2.131 1.245-14.114-13.727 8.33-10.987-19.789 13.755-8.33-12.26-5.895 9.105-20.839 26.347 12.675 37.916-22.998-37.916-22.999-26.347 12.676-9.105-20.84 12.26-5.895-13.755-8.33 10.959-19.871 13.727 8.33-1.245-14.114 21.697-2.132 2.741 30.278 37.915 22.998v-45.968l-23.635-17.63 12.648-18.708 10.959 8.192v-16.633h21.863v16.633l10.96-8.192 12.648 18.708-23.608 17.63v45.968l37.916-22.998 2.74-30.278 21.697 2.132-1.244 14.114 13.727-8.33 10.904 19.871-13.727 8.303 12.26 5.895-9.105 20.84-26.375-12.676-37.915 22.999 37.915 22.998 26.375-12.675 9.105 20.839-12.288 5.896 13.755 8.33-10.876 19.869z"/>
  <path id="13n" d="m426.32 326.18c-11.07 83.636-64.705 144.77-149.56 144.77-71.043 0-110.37-42.814-134.61-109.26-8.857 2.159-17.962 3.238-27.15 3.238-63.461-1e-3 -114.99-55.269-114.99-118.7 0-60.693 49.678-104.72 110.7-108.38h13.838v27.676h-13.838c-44.06 2.629-83.026 36.614-83.026 80.702 0 46.108 41.208 87.288 87.316 87.288 10.793 0 21.394-2.102 31.495-6.172l16.688-6.808 4.511 17.409c15.609 60.72 46.412 104.92 109.07 104.92 73.589 0 116.18-59.42 119.48-132.98l0.72-15.969 19.097 1.384c35.59 0 68.303-27.565 68.303-63.1 0-35.564-33.599-66.644-69.19-66.644h-41.513v-27.675h41.485c52.916 0 96.865 41.458 96.865 94.319-1e-3 48.931-37.363 88.811-85.685 93.986zm-91.467-109.26-13.727-8.331 1.245 14.115-21.698 2.131-2.74-30.278-37.916-22.97v45.942l23.608 17.629-12.62 18.681-10.988-8.22v16.66h-21.863v-16.66l-10.959 8.22-12.648-18.708 23.635-17.629v-45.969l-37.915 22.97-2.74 30.278-21.698-2.131 1.245-14.114-13.727 8.33-10.987-19.789 13.755-8.33-12.26-5.895 9.105-20.839 26.347 12.675 37.916-22.998-37.916-22.999-26.347 12.676-9.105-20.84 12.26-5.895-13.755-8.33 10.959-19.871 13.727 8.33-1.245-14.114 21.697-2.132 2.741 30.278 37.915 22.998v-45.968l-23.635-17.63 12.648-18.708 10.959 8.192v-16.633h21.863v16.633l10.96-8.192 12.648 18.708-23.608 17.63v45.968l37.916-22.998 2.74-30.278 21.697 2.132-1.244 14.114 13.727-8.33 10.904 19.871-13.727 8.303 12.26 5.895-9.105 20.84-26.375-12.676-37.915 22.999 37.915 22.998 26.375-12.675 9.105 20.839-12.288 5.896 13.755 8.33-10.876 19.869z"/>
  <path id="50d" d="m0 158.2h477.48v-34.517h-477.48v34.517zm0 230.11h477.48v-34.517h-477.48v34.517zm0-115.06h477.48v-34.517h-477.48v34.517zm34.517 57.529h92.045v-34.517h-92.045v34.517zm126.56 0h350.92v-34.517h-350.92v34.517zm258.88-115.06h92.045v-34.517h-92.045v34.517zm-385.44 0h350.92v-34.517h-350.92v34.517z"/>
  <path id="50n" d="m0 158.2h477.48v-34.517h-477.48v34.517zm0 230.11h477.48v-34.517h-477.48v34.517zm0-115.06h477.48v-34.517h-477.48v34.517zm34.517 57.529h92.045v-34.517h-92.045v34.517zm126.56 0h350.92v-34.517h-350.92v34.517zm258.88-115.06h92.045v-34.517h-92.045v34.517zm-385.44 0h350.92v-34.517h-350.92v34.517z"/>
  <g id="sunset">
   <path id="path33" d="m4879.2 5001.6c-78.6-34.5-159.1-132.2-172.5-208.9-5.7-34.5-9.6-364.1-5.7-735.9 5.7-645.8 7.7-676.5 46-726.3 74.7-101.6 136.1-132.2 256.8-132.2s182 30.7 256.8 132.2c38.3 51.7 40.2 74.7 40.2 778s-1.9 726.3-40.2 778c-21.1 28.7-61.3 70.9-88.2 90.1-63.3 48-216.6 61.4-293.2 25z"/>
   <path id="path35" d="m1621.4 3660.1c-128.4-55.6-201.2-201.2-172.5-350.7 9.6-63.2 82.4-143.7 523.2-584.5 551.9-551.9 557.7-555.7 726.3-523.2 93.9 17.2 208.9 132.2 226.1 226.1 32.6 166.7 26.8 176.3-504 711-270.2 272.1-519.3 505.9-553.8 521.3-76.7 32.6-170.6 32.6-245.3 0z"/>
   <path id="path37" d="m8137 3660.1c-30.7-15.3-279.8-249.1-550-521.3-530.8-534.7-536.6-544.2-504-711 17.3-93.9 132.2-208.9 226.1-226.1 168.6-32.6 174.4-26.8 716.7 513.6 352.6 350.7 509.7 521.2 525.1 565.3 42.2 130.3-3.8 268.3-120.7 354.5-65.2 48-216.6 61.4-293.2 25z"/>
   <path id="path39" d="m4668.4 2861c-900.7-120.7-1724.7-716.7-2136.7-1544.6-176.4-356.4-262.6-686-281.8-1088.5-21.1-429.3 55.6-793.4 276-1306.9 7.7-19.2-235.7-24.9-1111.5-28.8-1100-5.7-1123-5.7-1174.7-46-101.6-74.7-132.2-136.1-132.2-256.8s30.7-182.1 132.2-256.8l51.7-40.2h9424.6l51.7 40.2c101.6 74.7 132.2 136.1 132.2 256.8s-30.7 182.1-132.2 256.8c-51.7 40.3-74.7 40.3-1172.8 46-615.2 1.9-1119.1 7.7-1119.1 9.6s30.7 76.7 67.1 164.8c408.2 965.8 231.9 2027.5-471.4 2853.4-381.4 448.4-986.9 801-1571.4 914.1-193.6 38.4-645.8 53.7-831.7 26.9zm636.2-613.2c390.9-51.7 793.4-220.4 1078.9-452.3 818.3-666.9 1008-1910.6 429.3-2826.6l-46-72.8h-3526l-51.7 82.4c-187.8 297-306.6 672.6-325.8 1029.1-19.2 400.5 47.9 739.7 224.2 1101.9 208.9 431.2 500.2 720.5 929.4 929.4 126.5 61.3 285.5 126.5 354.5 143.7 297 80.5 643.8 105.4 933.2 65.2z"/>
   <path id="path41" d="m279.9 402.3c-128.4-55.5-201.2-203.1-174.4-346.8 17.3-90.1 113.1-195.5 199.3-220.4 46-13.4 306.6-19.2 755-15.3 655.4 5.7 686 7.6 735.9 46 101.6 74.7 132.3 136 132.3 256.7s-30.7 182.1-132.2 256.8c-49.8 38.3-78.6 40.2-755 44.1-555.8 3.8-714.9 0-760.9-21.1z"/>
   <path id="path43" d="m8251.9 402.3c-128.4-55.6-201.2-203.1-174.4-346.9 17.2-90.1 113.1-195.5 199.3-220.4 46-13.4 306.6-19.2 755-15.3 655.4 5.7 686.1 7.6 735.9 46 101.6 74.8 132.3 136.1 132.3 256.8s-30.7 182.1-132.2 256.8c-49.8 38.3-78.6 40.2-755 44.1-555.8 3.8-714.9 0-760.9-21.1z"/>
   <path id="path45" d="m4879.2-2357.2c-70.9-32.6-134.1-99.6-161-170.5-13.4-34.5-21.1-268.3-21.1-632.4v-576.9l-233.8 231.9c-253 249.1-298.9 274-450.3 245.3-93.9-17.3-208.9-132.2-226.1-226.1-32.6-168.6-28.7-174.4 523.2-728.2 281.7-283.6 534.7-527 563.4-542.3 67.1-34.5 193.5-34.5 260.6 0 28.7 15.3 281.7 258.7 563.4 542.3 551.9 553.8 555.7 559.6 523.2 728.2-17.3 93.9-132.2 208.9-226.1 226.1-151.4 28.7-197.4 3.8-448.4-243.4l-233.8-231.9-5.7 605.6c-5.8 576.8-7.7 607.5-46 657.3-21.1 28.8-61.3 70.9-88.2 90.1-65.3 47.9-216.7 61.3-293.3 24.9z"/>
  </g>
  <g id="sunrise">
   <path id="path48" d="m4879.2 4997.3c-78.6-34.5-159.1-132.2-172.5-208.9-5.7-34.5-9.6-364.1-5.7-735.9 5.7-645.8 7.7-676.5 46-726.3 74.7-101.6 136.1-132.2 256.8-132.2s182 30.7 256.8 132.2c38.3 51.7 40.2 74.7 40.2 778s-1.9 726.3-40.2 778c-21.1 28.7-61.3 70.9-88.2 90.1-63.3 48-216.6 61.4-293.2 25z"/>
   <path id="path50" d="m1621.4 3655.8c-128.4-55.6-201.2-201.2-172.5-350.7 9.6-63.2 82.4-143.7 523.2-584.5 551.9-551.9 557.7-555.7 726.3-523.2 93.9 17.2 208.9 132.2 226.1 226.1 32.6 166.7 26.8 176.3-504 711-270.2 272.1-519.3 505.9-553.8 521.3-76.7 32.6-170.6 32.6-245.3 0z"/>
   <path id="path52" d="m8137 3655.8c-30.7-15.3-279.8-249.1-550-521.3-530.8-534.7-536.6-544.2-504-711 17.3-93.9 132.2-208.9 226.1-226.1 168.6-32.6 174.4-26.8 716.7 513.6 352.6 350.7 509.7 521.2 525.1 565.3 42.2 130.3-3.8 268.3-120.7 354.5-65.2 48-216.6 61.4-293.2 25z"/>
   <path id="path54" d="m4668.4 2856.7c-900.7-120.7-1724.8-716.7-2136.8-1544.6-176.3-356.4-262.5-686.1-281.7-1088.5-21.1-429.3 55.6-793.4 276-1306.9 7.7-19.2-235.7-24.9-1111.5-28.8-1100-5.7-1123-5.7-1174.7-46-101.6-74.7-132.2-136.1-132.2-256.8s30.7-182.1 132.2-256.8l51.7-40.2h9424.6l51.7 40.2c101.6 74.7 132.2 136.1 132.2 256.8s-30.7 182.1-132.2 256.8c-51.7 40.3-74.7 40.3-1172.8 46-615.2 1.9-1119.1 7.7-1119.1 9.6s30.7 76.7 67.1 164.8c408.2 965.8 231.9 2027.5-471.4 2853.4-381.4 448.4-986.9 801-1571.4 914.1-193.6 38.4-645.8 53.7-831.7 26.9zm636.2-613.2c390.9-51.7 793.4-220.4 1078.9-452.3 818.3-666.9 1008-1910.6 429.3-2826.6l-46-72.8h-3526l-51.7 82.4c-187.8 297-306.6 672.6-325.8 1029.1-19.2 400.5 47.9 739.7 224.2 1101.9 208.9 431.2 500.2 720.5 929.4 929.4 126.5 61.3 285.5 126.5 354.5 143.7 297 80.5 643.8 105.4 933.2 65.2z"/>
   <path id="path56" d="m279.9 398c-128.4-55.5-201.2-203.1-174.4-346.8 17.2-90.1 113.1-195.5 199.3-220.4 46-13.4 306.6-19.2 755-15.3 655.4 5.8 686 7.7 735.9 46 101.6 74.7 132.3 136 132.3 256.7s-30.7 182.1-132.2 256.8c-49.8 38.3-78.6 40.2-755 44.1-555.8 3.8-714.9 0-760.9-21.1z"/>
   <path id="path58" d="m8251.9 398c-128.4-55.6-201.2-203.1-174.4-346.8 17.2-90.1 113.1-195.5 199.3-220.4 46-13.4 306.6-19.2 755-15.3 655.4 5.8 686.1 7.7 735.9 46 101.6 74.7 132.3 136 132.3 256.7s-30.7 182.1-132.2 256.8c-49.8 38.3-78.6 40.2-755 44.1-555.8 3.8-714.9 0-760.9-21.1z"/>
   <path id="path60" d="m4860-2371.1c-30.7-19.2-283.6-262.5-559.6-540.4-540.4-546.2-546.2-551.9-513.6-720.6 17.2-93.9 132.2-208.9 226.1-226.1 151.4-28.8 197.4-3.8 448.4 243.4l233.8 231.9 5.8-605.6c5.7-576.8 7.7-607.5 46-657.3 74.7-101.6 136.1-132.2 256.8-132.2s182 30.7 256.8 132.2c38.3 49.8 40.2 80.5 46 657.3l5.7 605.6 233.8-231.9c251.1-247.2 297-272.1 448.4-243.4 93.9 17.2 208.9 132.2 226.1 226.1 32.6 168.6 28.7 174.4-523.2 728.2-281.7 283.6-534.7 527-563.4 542.3-72.7 38.4-204.9 34.6-273.9-9.5z"/>
  </g>
  <path id="battery" d="m748.5 910.6c0 21.5-7.7 40.1-23.1 55.8s-36.7 23.6-63.9 23.6h-315.5c-30.8 0-54.2-8.6-70.3-25.8s-24.2-38.6-24.2-64.4v-681.6c0-19.3 6.4-35.4 19.3-48.3s31.5-19.3 55.8-19.3h348.8c25.8 0 44.4 6.4 55.8 19.3s17.2 29.7 17.2 50.5v690.2zm-337.1-104.1v53.7h177.1v-53.7h-177.1zm62.3-566.8v61.2h-62.3v53.7h62.3v62.3h52.6v-62.3h62.3v-53.7h-62.3v-61.2h-52.6zm26.8-229.7c7.2 0.7 14.3 1.1 21.5 1.1 5.7 0 12.2 0.2 19.3 0.5 7.2 0.4 14 0.5 20.4 0.5 12.9 0.7 21.3 4.7 25.2 11.8 3.9 7.2 5.9 17.2 5.9 30.1v50.4h-186.7v-40.7c0-5.7 0.4-13.1 1.1-22s3.9-15.9 9.7-20.9c6.4-5.8 17.1-8.8 32.1-9.2 15-0.3 32.2-0.9 51.5-1.6z"/>
  <path id="drop" d="m500 10s-334 461.5-334 646 149.5 334 334 334 334-149.6 334-334c0-184.5-334-646-334-646zm-216.3 505.6s-8.2 162.8 167.4 377.9c0 0-272-122.1-167.4-377.9z"/>
  <g id="barometer">
   <path id="path65" d="m4635.1 5010c-1956.5-157.3-3623.3-1438.6-4267.8-3280-293.5-844-347.2-1799.2-151.6-2685.4 408.6-1837.6 1870.2-3299.3 3709.7-3709.8 698.2-155.4 1450.1-155.4 2148.3 0 1837.6 410.5 3299.3 1872.2 3709.8 3709.8 155.4 698.2 155.4 1450.1 0 2148.3-410.5 1839.5-1872.2 3301.2-3709.7 3709.7-443.1 97.8-1018.6 142-1438.7 107.4zm1016.7-431.6c801.8-124.7 1538.4-448.8 2165.6-949.5 882.3-705.9 1469.3-1732.1 1645.8-2877.2 46-305 46-961 0-1266-74.8-489.1-209.1-913-425.8-1352.3-659.9-1337-1910.5-2248.1-3404.7-2478.3-306.9-46-961-46-1266 1.9-821 126.6-1559.5 448.8-2186.7 953.3-890.1 715.6-1463.6 1720.7-1644 2875.4-46 305-46 959.1 0 1266 153.5 991.7 587 1852.9 1283.3 2547.3 763.4 765.4 1691.8 1196.9 2825.4 1315.9 163.1 17.3 813.3-7.7 1007.1-36.5z"/>
   <path id="path67" d="m4731.1 3780.5c-1548-113.2-2867.6-1191.2-3270.5-2670.1-140-519.8-172.6-1118.3-86.3-1611.2 118.9-673.3 420.1-1300.5 880.4-1824.2 182.2-207.2 243.6-241.7 352.9-197.6 165 71 170.7 237.9 13.4 387.5-174.6 165-406.7 496.8-556.3 794.1-460.4 918.8-458.4 2002.5 3.8 2927.1 594.6 1185.4 1877.9 1910.5 3176.4 1797.3 458.4-40.3 807.6-138.1 1225.7-343.4 282-136.2 324.2-141.9 416.2-49.9 38.4 38.4 49.9 69 49.9 134.3 0 115.1-46 157.3-331.8 293.5-448.9 214.8-861.3 326.1-1356.1 364.4-141.9 9.6-272.4 17.3-287.7 17.3-15.2-1.8-118.8-9.5-230-19.1z"/>
   <path id="path69" d="m6474.7 2155.8c-615.7-450.8-1129.8-826.7-1143.2-834.4-11.5-7.7-103.6-3.8-203.3 9.6-301.1 38.4-586.9-38.4-849.7-224.4-399-285.8-592.7-847.8-450.8-1315.9l44.1-147.7-251.3-450.8c-282-508.3-289.6-535.2-186.1-638.7 103.6-103.6 130.4-95.9 638.7 186.1l450.8 251.3 147.7-44.1c182.2-55.6 450.8-59.5 633-9.6 429.7 117 759.6 445 876.6 876.6 30.7 113.2 36.5 299.2 21.1 583.1-3.8 47.9 132.3 243.6 819.1 1175.8 918.8 1252.6 895.8 1214.2 773 1337-128.6 128.5-69.1 163-1319.7-753.9zm220.5-351c-5.8-11.5-218.7-303.1-471.9-646.4-516-704-473.8-611.9-416.2-909.2 118.9-615.7-525.6-1129.8-1116.4-888.1-65.2 26.9-145.8 48-178.4 48-34.5 0-130.4-40.3-230.2-95.9-94-53.7-174.6-94-178.4-90.2s36.5 84.4 90.2 178.4c55.6 99.7 95.9 195.6 95.9 230.2 0 32.6-21.1 113.2-48 178.4-61.4 149.6-78.6 322.3-49.9 466.1 95.9 462.3 558.2 757.7 999.4 638.7 201.4-53.7 166.9-71 863.2 441.2 352.9 259 644.5 470 648.3 470s0.1-9.7-7.6-21.2z"/>
   <path id="path71" d="m4836.6 485.1c-322.3-149.6-314.6-602.3 13.4-738.5 257-107.4 552.4 92.1 552.4 372.1 0 287.8-306.9 485.3-565.8 366.4z"/>
   <path id="path73" d="m7871.1 2006.2c-92.1-92.1-86.3-134.3 49.9-416.2 364.5-742.3 446.9-1496.2 249.4-2286.5-122.8-493-400.9-1014.7-730.8-1371.5-72.9-78.6-142-163-153.5-186.1-57.5-107.4-1.9-234 120.8-274.3 97.8-32.6 170.7 13.4 345.3 211 855.5 966.8 1139.4 2347.8 736.6 3575.4-88.2 268.5-280.1 679-351 750-69.2 69.2-197.7 67.3-266.7-1.8z"/>
   <path id="path75" d="m3467-1960.5c-95.9-53.7-95.9-55.6-97.8-984 0-633 5.8-880.4 23-916.9 44.1-95.9 193.7-136.2 280-74.8 84.4 59.5 90.2 88.2 99.7 650.3l9.6 535.2 128.5-172.6c132.3-176.5 186.1-218.7 283.9-218.7 71 0 140 59.5 268.5 237.9 57.5 78.6 111.3 145.8 120.8 145.8 7.7 0 13.4-241.7 13.4-539v-539l65.2-65.2c86.3-86.3 176.5-90.2 264.7-9.6l63.3 55.6 5.8 868.9c3.8 633 0 884.3-17.3 922.6-53.7 130.4-197.6 168.8-301.1 82.5-30.7-26.8-153.5-176.5-272.4-335.7-118.8-157.4-220.4-287.8-228.1-287.8-5.8 1.9-111.3 136.2-232.1 299.2-120.8 165-241.7 314.6-266.6 335.7-51.8 42.2-143.9 46-211 9.6z"/>
   <path id="path77" d="m5513.7-1962.5c-28.8-17.2-61.4-46-72.9-67.1-11.5-23-19.2-354.9-19.2-924.6 0-972.5-3.8-943.7 113.2-993.6 38.4-15.3 147.7-21.1 351-15.3 276.2 5.8 301.2 9.6 402.8 59.5 326.1 161.1 441.2 583.1 237.8 882.4l-48 71 48 71c207.2 305 82.5 738.5-259 895.8-76.7 34.5-128.5 40.3-395.1 44.1-245.5 5.6-316.4-0.1-358.6-23.2zm615.7-400.8c99.7-51.8 130.4-214.8 57.5-305-47.9-63.3-151.5-94-276.2-86.3l-95.9 5.8-5.8 207.2-5.8 205.2h136.2c80.6-0.1 157.4-11.6 190-26.9zm-28.8-805.7c115.1-48 159.2-168.8 103.6-289.6-34.5-74.8-109.3-105.5-264.7-105.5h-134.3v197.6c0 109.3 5.8 205.2 13.4 211 23.1 23 216.8 13.4 282-13.5z"/>
  </g>
  <path id="umbrella" d="m266 55.954v-14.954c0-13-20-13-20 0v14.962c-116 5.156-210.72 98.38-216.94 214.89 16.579-24.871 44.866-41.258 76.999-41.258 30.538 0 57.638 14.803 74.481 37.621 13.947-23.06 38.464-39.527 65.464-43.669v195.51c0 0.686 0.048 1.352 0.179 1.996-1.257 21.922-18.972 39.236-41.199 39.537-22.855 0.308-41.275-19.025-41.579-41.446-0.177-13.028-20.4-13.045-20.222 0 0.46 33.924 27.897 61.208 61.789 61.665 33.912 0.458 60.951-28.498 61.396-61.665 0.011-0.836-0.362-1.645-0.362-2.418v-193.98c26 1.837 50.213 14.928 65.904 34.555 16.949-21.201 43.067-34.786 72.322-34.786 33.256 0 62.347 17.553 78.648 43.896-8.343-114.49-101.88-205.46-216.88-210.46z"/>
  <g id="humidity" transform="translate(0 512) scale(.1 -.1)">
   <path id="path81" d="m3879.5 5005c-754.7-82.4-1509.4-381.2-2118.6-840.9-206.9-157.1-645.5-595.7-802.6-802.6-1272-1687.6-1114.9-4032.2 369.7-5520.6 634-636 1427.1-1047.8 2312.1-1195.3 254.8-44.1 819.8-59.4 1097.6-30.6 369.7 38.3 942.4 178.1 1143.6 279.7 26.8 13.4 67.1 30.6 92 36.4 36.4 11.5 42.1 7.7 42.1-32.6 0-90 95.8-387 182-563.2 235.6-478.9 639.8-842.8 1122.5-1007.6 934.8-321.8 1927 107.3 2377.2 1024.8 88.1 180.1 155.2 409.9 187.7 637.9 95.8 683.8-254.7 1591.8-1126.3 2911.6l-241.4 364-1.9 517.2c-3.8 559.3-17.2 683.9-122.6 1093.8-421.6 1616.6-1779.7 2836.8-3450 3101.2-241.4 38.3-821.8 53.6-1063.1 26.8zm965.4-411.8c1568.8-206.9 2896.3-1448.2 3210.4-3005.5 47.9-235.6 93.9-653.2 82.4-749-5.7-53.6-9.6-51.7-91.9 63.2-47.9 65.1-92 120.7-99.6 120.7s-53.6-53.6-105.4-118.8l-91.9-120.7-11.5 210.7c-49.8 856.3-398.4 1635.9-1003.7 2241.2-522.9 522.9-1178.1 852.4-1925.1 969.3-206.9 32.6-783.5 32.6-986.5 0-754.7-120.7-1409.8-450.2-1932.8-971.2-521-522.9-850.5-1178.1-971.2-1932.8-32.6-203.1-32.6-779.6 0-986.5 208.8-1335.1 1130.2-2400.2 2409.8-2787.1 835.2-252.9 1748.9-172.4 2530.4 222.2 116.9 59.4 214.6 107.3 214.6 105.4s-17.2-80.4-38.3-176.2c-21.1-93.9-38.3-199.2-38.3-231.8 0-76.6-24.9-93.8-287.3-197.3-1112.9-436.8-2371.4-323.8-3398.2 304.6-699.3 429-1274 1124.4-1576.7 1904-252.8 657-310.3 1509.4-147.5 2216.3 116.9 496.1 362 1017.2 683.8 1446.2 149.4 197.3 534.4 582.3 731.7 731.7 829.6 622.6 1804.6 877.4 2842.8 741.4zm-17.2-789.2c819.8-145.6 1547.7-616.8 2001.7-1296.8 258.6-386.9 408-768.1 490.4-1254.7 34.5-203 30.7-756.6-7.7-953.9-26.8-147.5-42.1-178.1-195.4-409.9-241.3-364-484.6-772-641.7-1078.5-93.9-183.9-159-285.4-206.9-325.6-350.5-298.8-848.6-544-1289.2-639.8-1101.4-235.6-2231.6 134.1-2955.7 969.3-488.4 563-741.2 1245-741.2 2001.6 0 404.2 59.4 722.2 195.4 1078.4 356.3 919.5 1143.6 1620.5 2086 1856.2 406.1 101.5 875.4 120.7 1264.3 53.7zm3300.4-3677.9c492.3-683.9 934.8-1440.5 1153.2-1965.3 250.9-609.2 287.3-1061.2 114.9-1515.2-141.8-381.2-454-720.2-816-890.7-226-105.4-411.8-139.8-697.3-130.2-214.5 7.6-272 17.2-415.7 67-557.4 193.5-973.1 689.6-1068.9 1271.9-82.4 509.6 113 1145.5 622.5 2028.6 316.1 551.7 890.7 1394.5 931 1369.6 7.7-5.8 88.2-111.2 176.3-235.7z"/>
   <path id="path83" d="m4109.3 3252.3c-810.3-82.4-1501.8-519.1-1909.8-1204.9-132.2-220.3-250.9-549.8-304.6-833.3-34.5-180.1-28.7-664.7 9.6-852.4 97.7-484.6 316.1-906 645.5-1239.4 153.2-157.1 168.6-168.6 243.3-168.6 143.7 0 239.4 149.4 172.4 273.9-11.5 23-80.4 107.3-155.2 185.8-369.7 396.5-549.8 856.2-549.8 1404.1 0 871.6 557.4 1655 1379.2 1934.7 256.7 88.1 457.8 114.9 756.6 103.4 413.8-15.3 724.1-116.9 1070.8-346.7 272-182 321.8-101.5-432.9-693.4l-657-513.4-120.7-15.3c-139.8-17.2-224.1-63.2-319.9-174.3-155.2-180.1-141.7-473.1 28.7-641.7 279.7-281.6 747.1-141.8 825.6 247.1 21.1 109.2 23 109.2 601.5 699.2 513.4 524.9 582.3 588.1 609.1 565.1 57.5-46 260.5-486.5 300.7-649.4 101.5-409.9 78.5-875.4-61.3-1239.4-101.5-262.4-229.9-469.3-417.6-668.5-191.6-206.9-220.3-264.4-170.5-362.1 36.4-70.9 99.6-109.2 180.1-109.2 70.9 0 88.1 11.5 239.5 168.6 327.5 331.4 542.1 737.5 647.4 1218.3 46 218.4 46 726-1.9 950.1-69 319.9-203.1 637.9-369.7 877.3l-84.3 122.6 93.9 103.4c103.4 113 132.2 191.6 95.8 260.5-65.1 122.6-180.1 124.5-337.1 7.7l-111.1-84.3-76.6 70.9c-287.3 262.4-708.8 473.1-1116.8 555.5-183.8 38.5-553.5 63.4-702.9 48.1z"/>
   <path id="path85" d="m7670.3-686.1c-44.1-88.1-197.3-365.9-342.9-618.7-459.7-806.4-567-1061.2-580.4-1383-19.2-467.4 187.7-896.5 553.6-1143.6 55.6-38.3 103.4-65.1 107.3-61.3 3.8 3.8-13.4 84.3-40.2 176.2-70.9 251-122.6 530.6-137.9 735.6-23 329.5 63.2 770.1 316.1 1634 243.2 833.2 264.3 946.3 124.4 660.8z"/>
  </g>
 </defs>
 <g id="g1021" transform="translate(-1.892)">
  <g id="g334" transform="translate(5.9465 .082193)" font-family="Arial, Helvetica, sans-serif">
   <use id="use90" transform="matrix(-.12436 0 0 -.12436 69.892 67.467)" width="100%" height="100%" xlink:href="##IC00"/>
   <text id="text92" x="3.8588459" y="7.452085" font-size="5px">#NOW</text>
   <text id="text94" x="157.63083" y="10.288924" font-size="6px" text-anchor="middle">Max:</text>
   <text id="text96" x="173.36656" y="25.485123" font-size="20px" text-anchor="end">#HI00</text>
   <text id="text98" x="180.0032" y="20.644514" font-size="12px" text-anchor="middle">°C</text>
   <text id="text100" x="157.40504" y="38.560116" font-size="6px" text-anchor="middle">Min:</text>
   <text id="text102" x="174.45403" y="53.861382" font-size="20px" text-anchor="end">#LO00</text>
   <text id="text104" x="180.25226" y="47.51899" font-size="12px" text-anchor="middle">°C</text>
   <text id="text106" x="125.12353" y="55.521214" font-size="52px" text-anchor="end">#TN</text>
   <text id="text108" x="130.43762" y="21.822582" font-size="15px" text-anchor="middle">°C</text>
   <text id="text110" x="3.0124087" y="74.918861" font-size="8px">#SUMNOW</text>
   <g id="g126" transform="translate(-4.0654,-16.484)">
    <text id="text112" x="14.0439" y="109.74013" font-size="7px" text-anchor="middle">#TM01</text>
    <use id="use114" transform="matrix(-.035838 0 0 -.040626 23.628 131.6)" width="100%" height="100%" xlink:href="##IC01"/>
    <g id="g122" font-size="5px" text-anchor="middle">
     <text id="text116" x="15" y="138.25587" font-size="7px">#TE01°C</text>
     <text id="text118" x="15" y="144.6684">#PP01%</text>
     <text id="text120" x="15" y="151.19797">#PA01mm</text>
    </g>
    <path id="path124" d="m26.006 104.52v50.566h-0.28291v-50.566z"/>
   </g>
   <g id="g142" transform="translate(18.365,-16.484)">
    <text id="text128" x="14.6439" y="109.74013" font-size="7px" text-anchor="middle">#TM02</text>
    <use id="use130" transform="matrix(-.035838 0 0 -.040626 23.628 131.6)" width="100%" height="100%" xlink:href="##IC02"/>
    <g id="g138" font-size="5px" text-anchor="middle">
     <text id="text132" x="15" y="138.25587" font-size="7px">#TE02°C</text>
     <text id="text134" x="15" y="144.6684">#PP02%</text>
     <text id="text136" x="15" y="151.19797">#PA02mm</text>
    </g>
    <path id="path140" d="m26.006 104.52v50.566h-0.28291v-50.566z"/>
   </g>
   <g id="g158" transform="translate(40.795,-16.484)">
    <text id="text144" x="14.6439" y="109.74013" font-size="7px" text-anchor="middle">#TM03</text>
    <use id="use146" transform="matrix(-.035838 0 0 -.040626 23.628 131.6)" width="100%" height="100%" xlink:href="##IC03"/>
    <g id="g154" font-size="5px" text-anchor="middle">
     <text id="text148" x="15" y="138.25587" font-size="7px">#TE03°C</text>
     <text id="text150" x="15" y="144.6684">#PP03%</text>
     <text id="text152" x="15" y="151.19797">#PA03mm</text>
    </g>
    <path id="path156" d="m26.006 104.52v50.566h-0.28291v-50.566z"/>
   </g>
   <g id="g174" transform="translate(63.225,-16.484)">
    <text id="text160" x="14.6439" y="109.74013" font-size="7px" text-anchor="middle">#TM04</text>
    <use id="use162" transform="matrix(-.035838 0 0 -.040626 23.628 131.6)" width="100%" height="100%" xlink:href="##IC04"/>
    <g id="g170" font-size="5px" text-anchor="middle">
     <text id="text164" x="15" y="138.25587" font-size="7px">#TE04°C</text>
     <text id="text166" x="15" y="144.6684">#PP04%</text>
     <text id="text168" x="15" y="151.19797">#PA04mm</text>
    </g>
    <path id="path172" d="m26.006 104.52v50.566h-0.28291v-50.566z"/>
   </g>
   <g id="g190" transform="translate(85.655,-16.484)">
    <text id="text176" x="14.6439" y="109.74013" font-size="7px" text-anchor="middle">#TM05</text>
    <use id="use178" transform="matrix(-.035838 0 0 -.040626 23.628 131.6)" width="100%" height="100%" xlink:href="##IC05"/>
    <g id="g186" font-size="5px" text-anchor="middle">
     <text id="text180" x="15" y="138.25587" font-size="7px">#TE05°C</text>
     <text id="text182" x="15" y="144.6684">#PP05%</text>
     <text id="text184" x="15" y="151.19797">#PA05mm</text>
    </g>
    <path id="path188" d="m26.006 104.52v50.566h-0.28291v-50.566z"/>
   </g>
   <g id="g206" transform="translate(108.09,-16.484)">
    <text id="text192" x="14.6439" y="109.74013" font-size="7px" text-anchor="middle">#TM06</text>
    <use id="use194" transform="matrix(-.035838 0 0 -.040626 23.628 131.6)" width="100%" height="100%" xlink:href="##IC06"/>
    <g id="g202" font-size="5px" text-anchor="middle">
     <text id="text196" x="15" y="138.25587" font-size="7px">#TE06°C</text>
     <text id="text198" x="15" y="144.6684">#PP06%</text>
     <text id="text200" x="15" y="151.19797">#PA06mm</text>
    </g>
    <path id="path204" d="m26.006 104.52v50.566h-0.28291v-50.566z"/>
   </g>
   <g id="g222" transform="translate(130.52,-16.484)">
    <text id="text208" x="14.6439" y="109.74013" font-size="7px" text-anchor="middle">#TM07</text>
    <use id="use210" transform="matrix(-.035838 0 0 -.040626 23.628 131.6)" width="100%" height="100%" xlink:href="##IC07"/>
    <g id="g218" font-size="5px" text-anchor="middle">
     <text id="text212" x="15" y="138.25587" font-size="7px">#TE07°C</text>
     <text id="text214" x="15" y="144.6684">#PP07%</text>
     <text id="text216" x="15" y="151.19797">#PA07mm</text>
    </g>
    <path id="path220" d="m26.006 104.52v50.566h-0.28291v-50.566z"/>
   </g>
   <g id="g238" transform="translate(152.95,-16.484)">
    <text id="text224" x="14.6439" y="109.74013" font-size="7px" text-anchor="middle">#TM08</text>
    <use id="use226" transform="matrix(-.035838 0 0 -.040626 23.628 131.6)" width="100%" height="100%" xlink:href="##IC08"/>
    <g id="g234" font-size="5px" text-anchor="middle">
     <text id="text228" x="15" y="138.25587" font-size="7px">#TE08°C</text>
     <text id="text230" x="15" y="144.6684">#PP08%</text>
     <text id="text232" x="15" y="151.19797">#PA08mm</text>
    </g>
    <path id="path236" d="m26.006 104.52v50.566h-0.28291v-50.566z"/>
   </g>
   <g id="g254" transform="translate(175.38,-16.484)">
    <text id="text240" x="14.6439" y="109.74013" font-size="7px" text-anchor="middle">#TM09</text>
    <use id="use242" transform="matrix(-.035838 0 0 -.040626 23.628 131.6)" width="100%" height="100%" xlink:href="##IC09"/>
    <g id="g250" font-size="5px" text-anchor="middle">
     <text id="text244" x="15" y="138.25587" font-size="7px">#TE09°C</text>
     <text id="text246" x="15" y="144.6684">#PP09%</text>
     <text id="text248" x="15" y="151.19797">#PA09mm</text>
    </g>
    <path id="path252" d="m26.006 104.52v50.566h-0.28291v-50.566z"/>
   </g>
   <g id="g270" transform="translate(197.81,-16.484)">
    <text id="text256" x="14.6439" y="109.74013" font-size="7px" text-anchor="middle">#TM10</text>
    <use id="use258" transform="matrix(-.035838 0 0 -.040626 23.628 131.6)" width="100%" height="100%" xlink:href="##IC10"/>
    <g id="g266" font-size="5px" text-anchor="middle">
     <text id="text260" x="15" y="138.25587" font-size="7px">#TE10°C</text>
     <text id="text262" x="15" y="144.6684">#PP10%</text>
     <text id="text264" x="15" y="151.19797">#PA10mm</text>
    </g>
    <path id="path268" d="m26.006 104.52v50.566h-0.28291v-50.566z"/>
   </g>
   <g id="g286" transform="translate(220.24,-16.484)">
    <text id="text272" x="14.6439" y="109.74013" font-size="7px" text-anchor="middle">#TM11</text>
    <use id="use274" transform="matrix(-.035838 0 0 -.040626 23.628 131.6)" width="100%" height="100%" xlink:href="##IC11"/>
    <g id="g282" font-size="5px" text-anchor="middle">
     <text id="text276" x="15" y="138.25587" font-size="7px">#TE11°C</text>
     <text id="text278" x="15" y="144.6684">#PP11%</text>
     <text id="text280" x="15" y="151.19797">#PA11mm</text>
    </g>
    <path id="path284" d="m26.006 104.52v50.566h-0.28291v-50.566z"/>
   </g>
   <g id="g300" transform="translate(242.67,-16.484)">
    <text id="text288" x="14.6439" y="109.74013" font-size="7px" text-anchor="middle">#TM12</text>
    <use id="use290" transform="matrix(-.035838 0 0 -.040626 23.628 131.6)" width="100%" height="100%" xlink:href="##IC12"/>
    <g id="g298" font-size="5px" text-anchor="middle">
     <text id="text292" x="15" y="138.25587" font-size="7px">#TE12°C</text>
     <text id="text294" x="15" y="144.6684">#PP12%</text>
     <text id="text296" x="15" y="151.19797">#PA12mm</text>
    </g>
   </g>
   <!-- <text id="text302" x="3.1091475" y="84.081184" font-size="6px">#SUMHR</text> -->
   <!-- <text id="text304" x="4.0020075" y="201.26326" font-size="6px">#SUMDAILY</text> -->
   <use id="use306" transform="matrix(8e-4,0,0,-8e-4,200,12.5)" width="100%" height="100%" xlink:href="#sunrise"/>
   <use id="use308" transform="matrix(8e-4,0,0,-8e-4,200,22.5)" width="100%" height="100%" xlink:href="#sunset"/>
   <use id="use310" transform="matrix(.02 0 0 .02 200 33)" width="100%" height="100%" xlink:href="#umbrella"/>
   <use id="use312" transform="matrix(8e-4,0,0,-8e-4,200,51)" width="100%" height="100%" xlink:href="#barometer"/>
   <use id="use314" transform="matrix(.009 0 0 .009 200 58)" width="100%" height="100%" xlink:href="#humidity"/>
   <use id="use316" transform="matrix(.008 0 0 .008 200 68)" width="100%" height="100%" xlink:href="#battery"/>
   <g id="g332" font-size="10px">
    <text id="text318" x="215" y="15">#SR</text>
    <text id="text320" x="215" y="25">#SS</text>
    <text id="text322" x="215" y="35">#DP0%</text>
    <text id="text324" x="215" y="45">#DM0mm</text>
    <text id="text326" x="215" y="55">#DBPmbar</text>
    <text id="text328" x="215" y="65">#DHU%</text>
    <text id="text330" x="215" y="75">#BAT%</text>
   </g>
  </g>
  <g id="g350" transform="translate(-33.218 -7.4738)" font-family="Arial, Helvetica, sans-serif">
   <g id="g348" transform="translate(40.312,47.307)">
    <text id="text336" x="14.6439" y="107.74013" font-size="7px" text-anchor="middle">#DA1</text>
    <use id="use338" transform="matrix(-.036517 0 0 -.041395 25.347 131.41)" width="100%" height="100%" xlink:href="##DI1"/>
    <g id="g346" font-size="7px" text-anchor="middle">
     <text id="text340" x="15" y="138.25587">#DL1..#DH1°C</text>
     <text id="text342" x="15" y="145.61311">#DP1%</text>
     <text id="text344" x="15" y="152.49748">#DM1mm</text>
    </g>
   </g>
  </g>
  <path id="path352" d="m42.336 143.52v50.566h-0.28291v-50.566z"/>
  <g id="g368" transform="translate(5.4965 -7.4678)" font-family="Arial, Helvetica, sans-serif">
   <g id="g366" transform="translate(40.312,47.307)">
    <text id="text354" x="14.6439" y="107.74013" font-size="7px" text-anchor="middle">#DA2</text>
    <use id="use356" transform="matrix(-.036517 0 0 -.041395 25.347 131.41)" width="100%" height="100%" xlink:href="##DI2"/>
    <g id="g364" font-size="7px" text-anchor="middle">
     <text id="text358" x="15" y="138.25587">#DL2..#DH2°C</text>
     <text id="text360" x="15" y="145.61311">#DP2%</text>
     <text id="text362" x="15" y="152.49748">#DM2mm</text>
    </g>
   </g>
  </g>
  <path id="path370" d="m81.048 143.52v50.566h-0.28291v-50.566z"/>
  <g id="g386" transform="translate(44.212 -7.4718)" font-family="Arial, Helvetica, sans-serif">
   <g id="g384" transform="translate(40.312,47.307)">
    <text id="text372" x="14.6439" y="107.74013" font-size="7px" text-anchor="middle">#DA3</text>
    <use id="use374" transform="matrix(-.036517 0 0 -.041395 25.347 131.41)" width="100%" height="100%" xlink:href="##DI3"/>
    <g id="g382" font-size="7px" text-anchor="middle">
     <text id="text376" x="15" y="138.25587">#DL3..#DH3°C</text>
     <text id="text378" x="15" y="145.61311">#DP3%</text>
     <text id="text380" x="15" y="152.49748">#DM3mm</text>
    </g>
   </g>
  </g>
  <path id="path388" d="m119.77 143.52v50.566h-0.2829v-50.566z"/>
  <g id="g404" transform="translate(82.928 -7.4758)" font-family="Arial, Helvetica, sans-serif">
   <g id="g402" transform="translate(40.312,47.307)">
    <text id="text390" x="14.6439" y="107.74013" font-size="7px" text-anchor="middle">#DA4</text>
    <use id="use392" transform="matrix(-.036517 0 0 -.041395 25.347 131.41)" width="100%" height="100%" xlink:href="##DI4"/>
    <g id="g400" font-size="7px" text-anchor="middle">
     <text id="text394" x="15" y="138.25587">#DL4..#DH4°C</text>
     <text id="text396" x="15" y="145.61311">#DP4%</text>
     <text id="text398" x="15" y="152.49748">#DM4mm</text>
    </g>
   </g>
  </g>
  <path id="path406" d="m158.48 143.52v50.566h-0.2829v-50.566z"/>
  <g id="g422" transform="translate(121.64 -7.4688)" font-family="Arial, Helvetica, sans-serif">
   <g id="g420" transform="translate(40.312,47.307)">
    <text id="text408" x="14.6439" y="107.74013" font-size="7px" text-anchor="middle">#DA5</text>
    <use id="use410" transform="matrix(-.036517 0 0 -.041395 25.347 131.41)" width="100%" height="100%" xlink:href="##DI5"/>
    <g id="g418" font-size="7px" text-anchor="middle">
     <text id="text412" x="15" y="138.25587">#DL5..#DH5°C</text>
     <text id="text414" x="15" y="145.61311">#DP5%</text>
     <text id="text416" x="15" y="152.49748">#DM5mm</text>
    </g>
   </g>
  </g>
  <path id="path424" d="m197.19 143.52v50.566h-0.2829v-50.566z"/>
  <g id="g440" transform="translate(160.35 -7.4738)" font-family="Arial, Helvetica, sans-serif">
   <g id="g438" transform="translate(40.312,47.307)">
    <text id="text426" x="14.6439" y="107.74013" font-size="7px" text-anchor="middle">#DA6</text>
    <use id="use428" transform="matrix(-.036517 0 0 -.041395 25.347 131.41)" width="100%" height="100%" xlink:href="##DI6"/>
    <g id="g436" font-size="7px" text-anchor="middle">
     <text id="text430" x="15" y="138.25587">#DL6..#DH6°C</text>
     <text id="text432" x="15" y="145.61311">#DP6%</text>
     <text id="text434" x="15" y="152.49748">#DM6mm</text>
    </g>
   </g>
  </g>
  <path id="path442" d="m235.9 143.52v50.566h-0.28291v-50.566z"/>
  <g id="g458" transform="translate(199.07 -7.4739)" font-family="Arial, Helvetica, sans-serif">
   <g id="g456" transform="translate(40.312,47.307)">
    <text id="text444" x="14.6439" y="107.74013" font-size="7px" text-anchor="middle">#DA7</text>
    <use id="use446" transform="matrix(-.036517 0 0 -.041395 25.347 131.41)" width="100%" height="100%" xlink:href="##DI7"/>
    <g id="g454" font-size="7px" text-anchor="middle">
     <text id="text448" x="15" y="138.25587">#DL7..#DH7°C</text>
     <text id="text450" x="15" y="145.61311">#DP7%</text>
     <text id="text452" x="15" y="152.49748">#DM7mm</text>
    </g>
   </g>
  </g>
 </g>
</svg>
