<?xml version="1.0" encoding="UTF-8"?>
<svg width="758" height="1024" version="1.1" viewBox="0 0 203.2 270.93" xmlns="http://www.w3.org/2000/svg" xmlns:cc="http://creativecommons.org/ns#" xmlns:dc="http://purl.org/dc/elements/1.1/" xmlns:rdf="http://www.w3.org/1999/02/22-rdf-syntax-ns#" xmlns:xlink="http://www.w3.org/1999/xlink">
 <style/>
 <metadata>
  <rdf:RDF>
   <cc:Work rdf:about="">
    <dc:format>image/svg+xml</dc:format>
    <dc:type rdf:resource="http://purl.org/dc/dcmitype/StillImage"/>
    <dc:title/>
   </cc:Work>
  </rdf:RDF>
 </metadata>
 <defs>
  <path id="clear-day" transform="translate(0,-1020.4)" d="m16.001 1045.4c-0.554 0-1 0.4459-1 1v1c0 0.554 0.446 1 1 1s1-0.446 1-1v-1c0-0.5541-0.446-1-1-1zm7.0703-2.9297c-0.25562 0-0.51116 0.097-0.70703 0.2929-0.39174 0.3917-0.39174 1.0224 0 1.414l0.70703 0.7072c0.39174 0.3916 1.0223 0.3916 1.4141 0 0.39174-0.3919 0.39174-1.0224 0-1.4141l-0.70703-0.7071c-0.19587-0.1958-0.45141-0.2929-0.70703-0.2929zm-14.141 0c-0.25562 0-0.51116 0.097-0.70703 0.2929l-0.70703 0.7071c-0.39174 0.3918-0.39174 1.0223 0 1.4141 0.39173 0.3916 1.0223 0.3916 1.4141 0l0.70703-0.7072c0.39174-0.3916 0.39174-1.0223 0-1.414-0.19587-0.1958-0.45141-0.2929-0.70703-0.2929zm17.07-7.0703c-0.554 0-1 0.4459-1 1 0 0.554 0.446 1 1 1h1c0.554 0 1-0.446 1-1 0-0.5541-0.446-1-1-1zm-21 0c-0.554 0-1 0.4459-1 1 0 0.554 0.446 1 1 1h1c0.554 0 1-0.446 1-1 0-0.5541-0.446-1-1-1zm11-7a8 8 0 0 0-8 8 8 8 0 0 0 8 8 8 8 0 0 0 8-8 8 8 0 0 0-8-8zm0 2a6 6 0 0 1 6 6 6 6 0 0 1-6 6 6 6 0 0 1-6-6 6 6 0 0 1 6-6zm7.7773-2.7793c-0.25561 0-0.51116 0.099-0.70703 0.2949l-0.70703 0.7071c-0.39174 0.3917-0.39174 1.0223 0 1.414 0.39174 0.3918 1.0223 0.3918 1.4141 0l0.70703-0.707c0.39174-0.3917 0.39174-1.0223 0-1.4141-0.19586-0.1958-0.45141-0.2949-0.70703-0.2949zm-15.555 0c-0.25562 0-0.51117 0.099-0.70703 0.2949-0.39174 0.3918-0.39174 1.0224 0 1.4141l0.70703 0.707c0.39173 0.3918 1.0223 0.3918 1.4141 0 0.39174-0.3917 0.39174-1.0223 0-1.414l-0.70703-0.7071c-0.19587-0.1958-0.45142-0.2949-0.70703-0.2949zm7.7773-3.2207c-0.554 0-1 0.4459-1 1v1c0 0.554 0.446 1 1 1s1-0.446 1-1v-1c0-0.5541-0.446-1-1-1z"/>
  <path id="clear-night" transform="translate(0,-1020.4)" d="m16.001 1045.4c-0.554 0-1 0.4459-1 1v1c0 0.554 0.446 1 1 1s1-0.446 1-1v-1c0-0.5541-0.446-1-1-1zm7.0703-2.9297c-0.25562 0-0.51116 0.097-0.70703 0.2929-0.39174 0.3917-0.39174 1.0224 0 1.414l0.70703 0.7072c0.39174 0.3916 1.0223 0.3916 1.4141 0 0.39174-0.3919 0.39174-1.0224 0-1.4141l-0.70703-0.7071c-0.19587-0.1958-0.45141-0.2929-0.70703-0.2929zm-14.141 0c-0.25562 0-0.51116 0.097-0.70703 0.2929l-0.70703 0.7071c-0.39174 0.3918-0.39174 1.0223 0 1.4141 0.39173 0.3916 1.0223 0.3916 1.4141 0l0.70703-0.7072c0.39174-0.3916 0.39174-1.0223 0-1.414-0.19587-0.1958-0.45141-0.2929-0.70703-0.2929zm17.07-7.0703c-0.554 0-1 0.4459-1 1 0 0.554 0.446 1 1 1h1c0.554 0 1-0.446 1-1 0-0.5541-0.446-1-1-1zm-21 0c-0.554 0-1 0.4459-1 1 0 0.554 0.446 1 1 1h1c0.554 0 1-0.446 1-1 0-0.5541-0.446-1-1-1zm11-7a8 8 0 0 0-8 8 8 8 0 0 0 8 8 8 8 0 0 0 8-8 8 8 0 0 0-8-8zm0 2a6 6 0 0 1 6 6 6 6 0 0 1-6 6 6 6 0 0 1-6-6 6 6 0 0 1 6-6zm7.7773-2.7793c-0.25561 0-0.51116 0.099-0.70703 0.2949l-0.70703 0.7071c-0.39174 0.3917-0.39174 1.0223 0 1.414 0.39174 0.3918 1.0223 0.3918 1.4141 0l0.70703-0.707c0.39174-0.3917 0.39174-1.0223 0-1.4141-0.19586-0.1958-0.45141-0.2949-0.70703-0.2949zm-15.555 0c-0.25562 0-0.51117 0.099-0.70703 0.2949-0.39174 0.3918-0.39174 1.0224 0 1.4141l0.70703 0.707c0.39173 0.3918 1.0223 0.3918 1.4141 0 0.39174-0.3917 0.39174-1.0223 0-1.414l-0.70703-0.7071c-0.19587-0.1958-0.45142-0.2949-0.70703-0.2949zm7.7773-3.2207c-0.554 0-1 0.4459-1 1v1c0 0.554 0.446 1 1 1s1-0.446 1-1v-1c0-0.5541-0.446-1-1-1z"/>
  <path id="cloudy" transform="translate(0,-1020.4)" d="m18 1025.4c-3.0799 0-5.7489 1.744-7.0859 4.295-2.3808 0.6468-4.3803 2.3585-5.3301 4.7207-3.1442 0.2185-5.5834 2.8326-5.584 5.9843 0 3.3138 2.6863 6 6 6h15.5c3.1818 0 5.8239-2.2873 6.3848-5.3066 2.3897-0.7906 4.1152-3.0385 4.1152-5.6934 0-3.3137-2.6863-6-6-6-0.34255 0-0.68429 0.033-1.0215 0.094-1.4139-2.5269-4.0829-4.0927-6.9785-4.0937zm0 2c2.7877 0 5.2063 1.9254 5.8379 4.6407 0.64435-0.4165 1.3949-0.6386 2.1621-0.6407 2.2091 0 4 1.7909 4 4 0 1.5118-0.84848 2.8121-2.0859 3.4922-0.48535-3.11-3.1679-5.4922-6.4141-5.4922-0.49867 0-0.99543 0.062-1.4805 0.1778-1.3174-2.4222-3.7857-3.966-6.5137-4.1426 1.0994-1.2449 2.7027-2.0352 4.4941-2.0352zm-5 4c2.8668 0 5.3313 2.0326 5.8828 4.8458 0.76276-0.5482 1.6779-0.8439 2.6172-0.8458 2.4853 0 4.5 2.0148 4.5 4.5 0 2.4853-2.0147 4.5-4.5 4.5h-15.5c-2.2091 0-4-1.7908-4-4 0-2.2091 1.7909-4 4-4 0.36119 1e-3 0.72057 0.051 1.0684 0.1485 0.4232-2.9517 2.9498-5.1447 5.9316-5.1485z"/>
  <path id="fog" transform="translate(0,-1021.4)" d="m5.0002 1029.4c-0.554 0-1 0.446-1 1s0.446 1 1 1h22c0.554 0 1-0.446 1-1s-0.446-1-1-1zm0 4c-0.554 0-1 0.446-1 1s0.446 1 1 1h22c0.554 0 1-0.446 1-1s-0.446-1-1-1zm0 4c-0.554 0-1 0.446-1 1s0.446 1 1 1h22c0.554 0 1-0.446 1-1s-0.446-1-1-1zm0 4c-0.554 0-1 0.446-1 1s0.446 1 1 1h22c0.554 0 1-0.446 1-1s-0.446-1-1-1z"/>
  <path id="hail" transform="translate(0,-1020.4)" d="m15.001 1027.4c-3.2637 0-6.1985 1.9876-7.416 5.0156-3.1442 0.2186-5.5834 2.8326-5.584 5.9844 0 3.1616 2.4483 5.7416 5.5508 5.9727l1.1387-1.9727h-0.68945c-2.2091 0-4-1.7908-4-4 0-2.2091 1.7909-4 4-4 0.36119 0 0.72057 0.051 1.0684 0.1485 0.4232-2.9517 2.9498-5.1447 5.9316-5.1485 2.8668 0 5.3313 2.0325 5.8828 4.8457 0.76276-0.5481 1.6779-0.8438 2.6172-0.8457 2.4853 0 4.5 2.0147 4.5 4.5s-2.0147 4.5-4.5 4.5h-0.5l-1.1523 2h1.6523c3.5898 0 6.5-2.9101 6.5-6.5 0-3.5898-2.9102-6.5-6.5-6.5-0.49867 0-0.99543 0.062-1.4805 0.1777-1.399-2.5722-4.0915-4.1746-7.0195-4.1777zm-4 22a1 1 0 0 0-1 1 1 1 0 0 0 1 1 1 1 0 0 0 1-1 1 1 0 0 0-1-1zm13-2a1 1 0 0 0-1 1 1 1 0 0 0 1 1 1 1 0 0 0 1-1 1 1 0 0 0-1-1zm-23-2a1 1 0 0 0-1 1 1 1 0 0 0 1 1 1 1 0 0 0 1-1 1 1 0 0 0-1-1zm20.008-6a1.0001 1.0001 0 0 0-0.88086 0.5117l-5.7578 9.9766a1.0001 1.0001 0 0 0 1.3809 1.3555c1.702-1.0235 2.1758-2.1083 5.1641-1.8477a1.0001 1.0001 0 1 0 0.17188-1.9922c-1.3441-0.1172-2.3331 0.088-3.1934 0.3789l3.9668-6.8711a1.0001 1.0001 0 0 0-0.85157-1.5117zm-4 0a1.0001 1.0001 0 0 0-0.88086 0.5117l-4.0352 6.9883a1.0002 1.0002 0 1 0 1.7324 1l4.0352-6.9883a1.0001 1.0001 0 0 0-0.85156-1.5117zm-3.9922-0.012a1.0001 1.0001 0 0 0-0.88085 0.5117l-5.0137 8.6817c-0.71841-0.9428-1.5539-1.8319-2.8848-2.1543a1.001 1.001 0 1 0-0.47266 1.9453c1.0118 0.2451 1.7576 1.2552 2.6367 2.5722a1.0001 1.0001 0 0 0 1.6992-0.057l5.7656-9.9883a1.0001 1.0001 0 0 0-0.84962-1.5117z"/>
  <path id="partly-cloudy-day" transform="translate(0,-1020.4)" d="m12 1020.4c-0.554 0-1 0.446-1 1v1c0 0.554 0.446 1 1 1s1-0.446 1-1v-1c0-0.554-0.446-1-1-1zm-7.7773 3.2207c-0.25562 0-0.51117 0.099-0.70703 0.2949-0.39174 0.3918-0.39174 1.0224 0 1.4141l0.70703 0.707c0.39173 0.3918 1.0223 0.3918 1.4141 0 0.39174-0.3917 0.39174-1.0223 0-1.414l-0.70703-0.7071c-0.19587-0.1958-0.45142-0.2949-0.70703-0.2949zm15.555 0c-0.25561 0-0.51116 0.099-0.70703 0.2949l-0.70703 0.7071c-0.39174 0.3917-0.39174 1.0223 0 1.414 0.39174 0.3918 1.0223 0.3918 1.4141 0l0.70704-0.707c0.39173-0.3917 0.39173-1.0223 0-1.4141-0.19587-0.1958-0.45142-0.2949-0.70704-0.2949zm-7.7773 0.7793c-4.4183 0-8 3.5817-8 8 0 1.5899 0.4699 3.0672 1.2695 4.3125-0.79632 1.0202-1.2693 2.3012-1.2695 3.6875 0 3.3137 2.6863 6 6 6h15.5c3.5898 0 6.5-2.9101 6.5-6.5 0-3.5898-2.9102-6.5-6.5-6.5-0.49867 0-0.99543 0.062-1.4805 0.1777-0.97236-1.7878-2.5764-3.091-4.4434-3.7304-1.0664-3.1648-4.0518-5.4473-7.5762-5.4473zm0 2c2.2253 0 4.1633 1.2143 5.1992 3.0137-0.067 0-0.13195-0.014-0.19922-0.014-3.2637 0-6.1985 1.9875-7.416 5.0156-1.0334 0.072-1.9871 0.4063-2.8066 0.9297-0.49216-0.8707-0.77734-1.8738-0.77734-2.9453 0-3.3137 2.6863-6 6-6zm-11 5c-0.554 0-1 0.446-1 1s0.446 1 1 1h1c0.554 0 1-0.446 1-1s-0.446-1-1-1zm16 0c2.8668 0 5.3313 2.0325 5.8828 4.8457 0.76276-0.5481 1.6779-0.8438 2.6172-0.8457 2.4853 0 4.5 2.0147 4.5 4.5s-2.0147 4.5-4.5 4.5h-15.5c-2.2091 0-4-1.7909-4-4s1.7909-4 4-4c0.36119 0 0.72057 0.051 1.0684 0.1484 0.4232-2.9516 2.9498-5.1446 5.9316-5.1484z"/>
  <path id="partly-cloudy-night" transform="translate(0,-1020.4)" d="m10.748 1022.4c0.1649 0.6414 0.24953 1.3007 0.25195 1.9629 0 4.4183-3.5817 8-8 8-0.24979-7e-4 -0.49941-0.013-0.74805-0.037 0.45224 1.7708 1.4972 3.3334 2.9609 4.4277-0.76071 1.0074-1.2126 2.2576-1.2129 3.6094 0 3.3137 2.6863 6 6 6h15.5c3.5898 0 6.5-2.9101 6.5-6.5 0-3.5898-2.9102-6.5-6.5-6.5-0.49867 0-0.99543 0.062-1.4805 0.1777-1.248-2.2947-3.5282-3.8092-6.084-4.1132-0.44132-3.7431-3.4354-6.6705-7.1875-7.0274zm2.0996 2.709c1.6249 0.8766 2.7857 2.4576 3.0762 4.3359-2.8188 0.3853-5.2582 2.2436-6.3398 4.9336-1.0593 0.074-2.0342 0.4243-2.8672 0.9707-0.57342-0.3884-1.0794-0.8749-1.4961-1.4375 4.1598-0.9832 7.2836-4.4382 7.627-8.8027zm4.1523 6.2539c2.8668 0 5.3313 2.0325 5.8828 4.8457 0.76276-0.5481 1.6779-0.8438 2.6172-0.8457 2.4853 0 4.5 2.0147 4.5 4.5s-2.0147 4.5-4.5 4.5h-15.5c-2.2091 0-4-1.7909-4-4s1.7909-4 4-4c0.36119 0 0.72057 0.051 1.0684 0.1484 0.4232-2.9516 2.9498-5.1446 5.9316-5.1484z"/>
  <path id="rain" transform="translate(0,-1020.4)" d="m15 1027.4c-3.2637 0-6.1985 1.9876-7.416 5.0156-3.1442 0.2186-5.5834 2.8326-5.584 5.9844 0 3.1615 2.4483 5.7416 5.5508 5.9727l1.1387-1.9727h-0.68945c-2.2091 0-4-1.7909-4-4s1.7909-4 4-4c0.36119 0 0.72057 0.051 1.0684 0.1484 0.4232-2.9516 2.9498-5.1446 5.9316-5.1484 2.8668 0 5.3313 2.0325 5.8828 4.8457 0.76276-0.5481 1.6779-0.8438 2.6172-0.8457 2.4853 0 4.5 2.0147 4.5 4.5s-2.0147 4.5-4.5 4.5h-0.5l-1.1523 2h1.6523c3.5898 0 6.5-2.9101 6.5-6.5 0-3.5898-2.9102-6.5-6.5-6.5-0.49867 0-0.99543 0.062-1.4805 0.1777-1.399-2.5722-4.0915-4.1747-7.0195-4.1777zm-2.5009 13.135c0.47978 0.277 0.64303 0.8863 0.36603 1.3661l-1 1.732c-0.277 0.4798-0.88625 0.643-1.366 0.366-0.47977-0.277-0.64302-0.8862-0.36602-1.366l1-1.732c0.277-0.4798 0.88625-0.6431 1.366-0.3661zm4 0c0.47978 0.277 0.64303 0.8863 0.36603 1.3661l-1 1.732c-0.277 0.4798-0.88625 0.6431-1.366 0.3661-0.47978-0.277-0.64302-0.8863-0.36602-1.3661l1-1.732c0.277-0.4798 0.88624-0.6431 1.366-0.3661zm4 0c0.47978 0.277 0.64303 0.8863 0.36603 1.3661l-1 1.732c-0.277 0.4798-0.88625 0.6431-1.366 0.3661-0.47978-0.277-0.64303-0.8863-0.36603-1.3661l1-1.732c0.277-0.4798 0.88625-0.6431 1.366-0.3661zm-7.9983 5.2663c0.47978 0.277 0.64303 0.8862 0.36603 1.366l-1 1.732c-0.277 0.4798-0.88625 0.6431-1.366 0.3661-0.47978-0.277-0.64302-0.8863-0.36602-1.3661l1-1.732c0.277-0.4798 0.88624-0.643 1.366-0.366zm4 0c0.47978 0.277 0.64303 0.8862 0.36603 1.366l-1 1.732c-0.277 0.4798-0.88625 0.6431-1.366 0.3661-0.47978-0.277-0.64302-0.8863-0.36602-1.3661l1-1.732c0.277-0.4798 0.88624-0.643 1.366-0.366z"/>
  <path id="sleet" transform="translate(0,-1020.4)" d="m15.001 1027.4c-3.2637 0-6.1985 1.9876-7.416 5.0156-3.1442 0.2186-5.5834 2.8326-5.584 5.9844 0 3.1616 2.4483 5.7416 5.5508 5.9727l1.1387-1.9727h-0.68945c-2.2091 0-4-1.7908-4-4 0-2.2091 1.7909-4 4-4 0.36119 0 0.72057 0.051 1.0684 0.1485 0.4232-2.9517 2.9498-5.1447 5.9316-5.1485 2.8668 0 5.3313 2.0325 5.8828 4.8457 0.76276-0.5481 1.6779-0.8438 2.6172-0.8457 2.4853 0 4.5 2.0147 4.5 4.5s-2.0147 4.5-4.5 4.5h-0.5l-1.1523 2h1.6523c3.5898 0 6.5-2.9101 6.5-6.5 0-3.5898-2.9102-6.5-6.5-6.5-0.49867 0-0.99543 0.062-1.4805 0.1777-1.399-2.5722-4.0915-4.1746-7.0195-4.1777zm-4 22a1 1 0 0 0-1 1 1 1 0 0 0 1 1 1 1 0 0 0 1-1 1 1 0 0 0-1-1zm13-2a1 1 0 0 0-1 1 1 1 0 0 0 1 1 1 1 0 0 0 1-1 1 1 0 0 0-1-1zm-23-2a1 1 0 0 0-1 1 1 1 0 0 0 1 1 1 1 0 0 0 1-1 1 1 0 0 0-1-1zm20.008-6a1.0001 1.0001 0 0 0-0.88086 0.5117l-5.7578 9.9766a1.0001 1.0001 0 0 0 1.3809 1.3555c1.702-1.0235 2.1758-2.1083 5.1641-1.8477a1.0001 1.0001 0 1 0 0.17188-1.9922c-1.3441-0.1172-2.3331 0.088-3.1934 0.3789l3.9668-6.8711a1.0001 1.0001 0 0 0-0.85157-1.5117zm-4 0a1.0001 1.0001 0 0 0-0.88086 0.5117l-4.0352 6.9883a1.0002 1.0002 0 1 0 1.7324 1l4.0352-6.9883a1.0001 1.0001 0 0 0-0.85156-1.5117zm-3.9922-0.012a1.0001 1.0001 0 0 0-0.88085 0.5117l-5.0137 8.6817c-0.71841-0.9428-1.5539-1.8319-2.8848-2.1543a1.001 1.001 0 1 0-0.47266 1.9453c1.0118 0.2451 1.7576 1.2552 2.6367 2.5722a1.0001 1.0001 0 0 0 1.6992-0.057l5.7656-9.9883a1.0001 1.0001 0 0 0-0.84962-1.5117z"/>
  <path id="snow" transform="translate(0,-1020.4)" d="m16.5 1044.4c-0.277 0-0.5 0.446-0.5 1v0.293l-0.20703-0.2071c-0.39174-0.3917-0.86468-0.5493-1.0606-0.3535-0.19587 0.1959-0.0382 0.6688 0.35352 1.0606l0.20703 0.207h-0.29297c-0.554 0-1 0.223-1 0.5s0.446 0.5 1 0.5h0.29297l-0.20703 0.207c-0.39174 0.3918-0.54939 0.8647-0.35352 1.0606s0.66881 0.038 1.0606-0.3535l0.20703-0.2071v0.293c0 0.554 0.223 1 0.5 1s0.5-0.446 0.5-1v-0.293l0.20703 0.2071c0.39174 0.3917 0.86468 0.5494 1.0606 0.3535 0.19587-0.1959 0.0382-0.6688-0.35352-1.0606l-0.20703-0.207h0.29297c0.554 0 1-0.223 1-0.5s-0.446-0.5-1-0.5h-0.29297l0.20703-0.207c0.39174-0.3918 0.54939-0.8647 0.35352-1.0606-0.19587-0.1958-0.66881-0.038-1.0606 0.3535l-0.20703 0.2071v-0.293c0-0.554-0.223-1-0.5-1zm-6 0c-0.277 0-0.5 0.446-0.5 1v0.293l-0.20703-0.2071c-0.39174-0.3917-0.86468-0.5493-1.0606-0.3535-0.19587 0.1959-0.0382 0.6688 0.35352 1.0606l0.20703 0.207h-0.29297c-0.554 0-1 0.223-1 0.5s0.446 0.5 1 0.5h0.29297l-0.20703 0.207c-0.39174 0.3918-0.54939 0.8647-0.35352 1.0606s0.66881 0.038 1.0606-0.3535l0.20703-0.2071v0.293c0 0.554 0.223 1 0.5 1s0.5-0.446 0.5-1v-0.293l0.20703 0.2071c0.39174 0.3917 0.86468 0.5494 1.0606 0.3535 0.19587-0.1959 0.0382-0.6688-0.35352-1.0606l-0.20703-0.207h0.29297c0.554 0 1-0.223 1-0.5s-0.446-0.5-1-0.5h-0.29297l0.20703-0.207c0.39174-0.3918 0.54939-0.8647 0.35352-1.0606-0.19587-0.1958-0.66881-0.038-1.0606 0.3535l-0.20703 0.2071v-0.293c0-0.554-0.223-1-0.5-1zm8-5c-0.277 0-0.5 0.446-0.5 1v0.293l-0.20703-0.2071c-0.39174-0.3917-0.86468-0.5493-1.0606-0.3535-0.19587 0.1959-0.0382 0.6688 0.35352 1.0606l0.20703 0.207h-0.29297c-0.554 0-1 0.223-1 0.5s0.446 0.5 1 0.5h0.29297l-0.20703 0.207c-0.39174 0.3918-0.54939 0.8647-0.35352 1.0606s0.66881 0.038 1.0606-0.3535l0.20703-0.2071v0.293c0 0.554 0.223 1 0.5 1s0.5-0.446 0.5-1v-0.293l0.20703 0.2071c0.39174 0.3917 0.86468 0.5494 1.0606 0.3535 0.19587-0.1959 0.0382-0.6688-0.35352-1.0606l-0.20703-0.207h0.29297c0.554 0 1-0.223 1-0.5s-0.446-0.5-1-0.5h-0.29297l0.20703-0.207c0.39174-0.3918 0.54939-0.8647 0.35352-1.0606-0.19587-0.1958-0.66881-0.038-1.0606 0.3535l-0.20703 0.2071v-0.293c0-0.554-0.223-1-0.5-1zm-6 0c-0.277 0-0.5 0.446-0.5 1v0.293l-0.20703-0.2071c-0.39174-0.3917-0.86468-0.5493-1.0606-0.3535-0.19587 0.1959-0.0382 0.6688 0.35352 1.0606l0.20703 0.207h-0.29297c-0.554 0-1 0.223-1 0.5s0.446 0.5 1 0.5h0.29297l-0.20703 0.207c-0.39174 0.3918-0.54939 0.8647-0.35352 1.0606s0.66881 0.038 1.0606-0.3535l0.20703-0.2071v0.293c0 0.554 0.223 1 0.5 1s0.5-0.446 0.5-1v-0.293l0.20703 0.2071c0.39174 0.3917 0.86468 0.5494 1.0606 0.3535 0.19587-0.1959 0.0382-0.6688-0.35352-1.0606l-0.20703-0.207h0.29297c0.554 0 1-0.223 1-0.5s-0.446-0.5-1-0.5h-0.29297l0.20703-0.207c0.39174-0.3918 0.54939-0.8647 0.35352-1.0606-0.19587-0.1958-0.66881-0.038-1.0606 0.3535l-0.20703 0.2071v-0.293c0-0.554-0.223-1-0.5-1zm2.5-12c-3.2637 0-6.1985 1.9876-7.416 5.0156-3.1442 0.2186-5.5834 2.8326-5.584 5.9844 0 3.1615 2.4483 5.7416 5.5508 5.9727l1.1387-1.9727h-0.68945c-2.2091 0-4-1.7909-4-4s1.7909-4 4-4c0.36119 1e-3 0.72057 0.051 1.0684 0.1484 0.4232-2.9516 2.9498-5.1446 5.9316-5.1484 2.8668 0 5.3313 2.0325 5.8828 4.8457 0.76276-0.5481 1.6779-0.8438 2.6172-0.8457 2.4853 0 4.5 2.0147 4.5 4.5s-2.0147 4.5-4.5 4.5h-0.5l-1.1523 2h1.6523c3.5898 0 6.5-2.9101 6.5-6.5 0-3.5898-2.9102-6.5-6.5-6.5-0.49867 0-0.99543 0.062-1.4805 0.1777-1.399-2.5722-4.0915-4.1747-7.0195-4.1777z"/>
  <path id="thunderstorms" transform="translate(0,-1020.4)" d="m15 1027.4c-3.2637 0-6.1985 1.9876-7.416 5.0156-3.1442 0.2186-5.5834 2.8326-5.584 5.9844 0 3.1615 2.4483 5.7416 5.5508 5.9727l1.1387-1.9727h-0.68945c-2.2091 0-4-1.7909-4-4s1.7909-4 4-4c0.36119 1e-3 0.72057 0.051 1.0684 0.1484 0.4232-2.9516 2.9498-5.1446 5.9316-5.1484 2.8668 0 5.3313 2.0325 5.8828 4.8457 0.76276-0.5481 1.6779-0.8438 2.6172-0.8457 2.4853 0 4.5 2.0147 4.5 4.5s-2.0147 4.5-4.5 4.5h-0.5l-1.1523 2h1.6523c3.5898 0 6.5-2.9101 6.5-6.5 0-3.5898-2.9102-6.5-6.5-6.5-0.49867 0-0.99543 0.062-1.4805 0.1777-1.399-2.5722-4.0915-4.1747-7.0195-4.1777zm-1 11-2 6h2l-1 5 5-7h-3l2-4z"/>
  <path id="tornado" transform="translate(0,-1021.4)" d="m13 1045.4c-0.554 0-1 0.446-1 1s0.446 1 1 1h2c0.554 0 1-0.446 1-1s-0.446-1-1-1zm1.834-4c-0.46167 0-0.83398 0.446-0.83398 1s0.37231 1 0.83398 1h3.332c0.46167 0 0.83398-0.446 0.83398-1s-0.37231-1-0.83398-1zm0.94336-4c-0.43089 0-0.77734 0.446-0.77734 1s0.34645 1 0.77734 1h5.4453c0.43089 0 0.77734-0.446 0.77734-1s-0.34645-1-0.77734-1zm-0.95703-4c-0.46893 0-0.8457 0.446-0.8457 1s0.37677 1 0.8457 1h9.334c0.46893 0 0.8457-0.446 0.8457-1s-0.37677-1-0.8457-1zm-5.031-4c-0.43737 0-0.78929 0.446-0.78929 1s0.35192 1 0.78929 1h13.421c0.43737 0 0.78929-0.446 0.78929-1s-0.35192-1-0.78929-1zm-4.8726-4c-0.50785 0-0.91667 0.446-0.91667 1s0.40882 1 0.91667 1h20.167c0.50785 0 0.91667-0.446 0.91667-1s-0.40882-1-0.91667-1z"/>
  <path id="wind" transform="translate(0,-1020.4)" d="m24.608 1028.4c-0.94188-0.027-1.8841 0.3235-2.582 1.0215-0.98167 0.9425 0.47155 2.3957 1.4141 1.414 0.48348-0.4834 1.2184-0.5801 1.8106-0.2382 0.59214 0.3418 0.87618 1.027 0.69922 1.6875-0.17697 0.6604-0.76548 1.1113-1.4492 1.1113h-19.5c-0.55228 0-1 0.4477-1 1s0.44772 0.9999 1 1h19.5c1.5793 0 2.9721-1.0683 3.3809-2.5938 0.40875-1.5254-0.26316-3.1478-1.6309-3.9375-0.51289-0.2961-1.0774-0.4484-1.6426-0.4648zm-19.608 8.9995c-0.55228 0-1 0.4478-1 1 0 0.5523 0.44772 1 1 1h11.5c0.68374 0 1.2722 0.4509 1.4492 1.1114 0.17696 0.6604-0.10708 1.3456-0.69922 1.6875-0.59214 0.3418-1.3271 0.2452-1.8106-0.2383-0.94251-0.9817-2.3957 0.4715-1.4141 1.414 1.1167 1.1168 2.8569 1.3463 4.2246 0.5567 1.3677-0.7897 2.0396-2.412 1.6309-3.9375-0.40875-1.5254-1.8016-2.5938-3.3809-2.5938z"/>

<g id="sunset"><path d="M4879.2,5001.6c-78.6-34.5-159.1-132.2-172.5-208.9c-5.7-34.5-9.6-364.1-5.7-735.9c5.7-645.8,7.7-676.5,46-726.3c74.7-101.6,136.1-132.2,256.8-132.2c120.7,0,182,30.7,256.8,132.2c38.3,51.7,40.2,74.7,40.2,778s-1.9,726.3-40.2,778c-21.1,28.7-61.3,70.9-88.2,90.1C5109.1,5024.6,4955.8,5038,4879.2,5001.6z"/><path d="M1621.4,3660.1c-128.4-55.6-201.2-201.2-172.5-350.7c9.6-63.2,82.4-143.7,523.2-584.5c551.9-551.9,557.7-555.7,726.3-523.2c93.9,17.2,208.9,132.2,226.1,226.1c32.6,166.7,26.8,176.3-504,711c-270.2,272.1-519.3,505.9-553.8,521.3C1790,3692.7,1696.1,3692.7,1621.4,3660.1z"/><path d="M8137,3660.1c-30.7-15.3-279.8-249.1-550-521.3c-530.8-534.7-536.6-544.2-504-711c17.3-93.9,132.2-208.9,226.1-226.1c168.6-32.6,174.4-26.8,716.7,513.6c352.6,350.7,509.7,521.2,525.1,565.3c42.2,130.3-3.8,268.3-120.7,354.5C8365,3683.1,8213.6,3696.5,8137,3660.1z"/><path d="M4668.4,2861c-900.7-120.7-1724.7-716.7-2136.7-1544.6C2355.3,960,2269.1,630.4,2249.9,227.9c-21.1-429.3,55.6-793.4,276-1306.9c7.7-19.2-235.7-24.9-1111.5-28.8c-1100-5.7-1123-5.7-1174.7-46c-101.6-74.7-132.2-136.1-132.2-256.8c0-120.7,30.7-182.1,132.2-256.8l51.7-40.2h4712.3H9716l51.7,40.2c101.6,74.7,132.2,136.1,132.2,256.8c0,120.7-30.7,182.1-132.2,256.8c-51.7,40.3-74.7,40.3-1172.8,46c-615.2,1.9-1119.1,7.7-1119.1,9.6c0,1.9,30.7,76.7,67.1,164.8c408.2,965.8,231.9,2027.5-471.4,2853.4c-381.4,448.4-986.9,801-1571.4,914.1C5306.5,2872.5,4854.3,2887.8,4668.4,2861z M5304.6,2247.8c390.9-51.7,793.4-220.4,1078.9-452.3c818.3-666.9,1008-1910.6,429.3-2826.6l-46-72.8h-1763h-1763l-51.7,82.4c-187.8,297-306.6,672.6-325.8,1029.1c-19.2,400.5,47.9,739.7,224.2,1101.9c208.9,431.2,500.2,720.5,929.4,929.4c126.5,61.3,285.5,126.5,354.5,143.7C4668.4,2263.1,5015.2,2288,5304.6,2247.8z"/><path d="M279.9,402.3C151.5,346.8,78.7,199.2,105.5,55.5C122.8-34.6,218.6-140,304.8-164.9c46-13.4,306.6-19.2,755-15.3c655.4,5.7,686,7.6,735.9,46C1897.3-59.5,1928,1.8,1928,122.5c0,120.7-30.7,182.1-132.2,256.8c-49.8,38.3-78.6,40.2-755,44.1C485,427.2,325.9,423.4,279.9,402.3z"/><path d="M8251.9,402.3c-128.4-55.6-201.2-203.1-174.4-346.9c17.2-90.1,113.1-195.5,199.3-220.4c46-13.4,306.6-19.2,755-15.3c655.4,5.7,686.1,7.6,735.9,46C9869.3-59.5,9900,1.8,9900,122.5c0,120.7-30.7,182.1-132.2,256.8c-49.8,38.3-78.6,40.2-755,44.1C8457,427.2,8297.9,423.4,8251.9,402.3z"/><path d="M4879.2-2357.2c-70.9-32.6-134.1-99.6-161-170.5c-13.4-34.5-21.1-268.3-21.1-632.4V-3737l-233.8,231.9c-253,249.1-298.9,274-450.3,245.3c-93.9-17.3-208.9-132.2-226.1-226.1c-32.6-168.6-28.7-174.4,523.2-728.2c281.7-283.6,534.7-527,563.4-542.3c67.1-34.5,193.5-34.5,260.6,0c28.7,15.3,281.7,258.7,563.4,542.3c551.9,553.8,555.7,559.6,523.2,728.2c-17.3,93.9-132.2,208.9-226.1,226.1c-151.4,28.7-197.4,3.8-448.4-243.4l-233.8-231.9l-5.7,605.6c-5.8,576.8-7.7,607.5-46,657.3c-21.1,28.8-61.3,70.9-88.2,90.1C5107.2-2334.2,4955.8-2320.8,4879.2-2357.2z"/>
</g>
<g id="sunrise"><path d="M4879.2,4997.3c-78.6-34.5-159.1-132.2-172.5-208.9c-5.7-34.5-9.6-364.1-5.7-735.9c5.7-645.8,7.7-676.5,46-726.3c74.7-101.6,136.1-132.2,256.8-132.2c120.7,0,182,30.7,256.8,132.2c38.3,51.7,40.2,74.7,40.2,778c0,703.3-1.9,726.3-40.2,778c-21.1,28.7-61.3,70.9-88.2,90.1C5109.1,5020.3,4955.8,5033.7,4879.2,4997.3z"/><path d="M1621.4,3655.8c-128.4-55.6-201.2-201.2-172.5-350.7c9.6-63.2,82.4-143.7,523.2-584.5c551.9-551.9,557.7-555.7,726.3-523.2c93.9,17.2,208.9,132.2,226.1,226.1c32.6,166.7,26.8,176.3-504,711c-270.2,272.1-519.3,505.9-553.8,521.3C1790,3688.4,1696.1,3688.4,1621.4,3655.8z"/><path d="M8137,3655.8c-30.7-15.3-279.8-249.1-550-521.3c-530.8-534.7-536.6-544.2-504-711c17.3-93.9,132.2-208.9,226.1-226.1c168.6-32.6,174.4-26.8,716.7,513.6c352.6,350.7,509.7,521.2,525.1,565.3c42.2,130.3-3.8,268.3-120.7,354.5C8365,3678.8,8213.6,3692.2,8137,3655.8z"/><path d="M4668.4,2856.7C3767.7,2736,2943.6,2140,2531.6,1312.1c-176.3-356.4-262.5-686.1-281.7-1088.5c-21.1-429.3,55.6-793.4,276-1306.9c7.7-19.2-235.7-24.9-1111.5-28.8c-1100-5.7-1123-5.7-1174.7-46c-101.6-74.7-132.2-136.1-132.2-256.8c0-120.7,30.7-182.1,132.2-256.8l51.7-40.2h4712.3H9716l51.7,40.2c101.6,74.7,132.2,136.1,132.2,256.8c0,120.7-30.7,182.1-132.2,256.8c-51.7,40.3-74.7,40.3-1172.8,46c-615.2,1.9-1119.1,7.7-1119.1,9.6c0,1.9,30.7,76.7,67.1,164.8c408.2,965.8,231.9,2027.5-471.4,2853.4c-381.4,448.4-986.9,801-1571.4,914.1C5306.5,2868.2,4854.3,2883.5,4668.4,2856.7z M5304.6,2243.5c390.9-51.7,793.4-220.4,1078.9-452.3c818.3-666.9,1008-1910.6,429.3-2826.6l-46-72.8h-1763h-1763l-51.7,82.4c-187.8,297-306.6,672.6-325.8,1029.1c-19.2,400.5,47.9,739.7,224.2,1101.9c208.9,431.2,500.2,720.5,929.4,929.4c126.5,61.3,285.5,126.5,354.5,143.7C4668.4,2258.8,5015.2,2283.7,5304.6,2243.5z"/><path d="M279.9,398C151.5,342.5,78.7,194.9,105.5,51.2c17.2-90.1,113.1-195.5,199.3-220.4c46-13.4,306.6-19.2,755-15.3c655.4,5.8,686,7.7,735.9,46C1897.3-63.8,1928-2.5,1928,118.2c0,120.7-30.7,182.1-132.2,256.8c-49.8,38.3-78.6,40.2-755,44.1C485,422.9,325.9,419.1,279.9,398z"/><path d="M8251.9,398c-128.4-55.6-201.2-203.1-174.4-346.8c17.2-90.1,113.1-195.5,199.3-220.4c46-13.4,306.6-19.2,755-15.3c655.4,5.8,686.1,7.7,735.9,46C9869.3-63.8,9900-2.5,9900,118.2c0,120.7-30.7,182.1-132.2,256.8c-49.8,38.3-78.6,40.2-755,44.1C8457,422.9,8297.9,419.1,8251.9,398z"/><path d="M4860-2371.1c-30.7-19.2-283.6-262.5-559.6-540.4c-540.4-546.2-546.2-551.9-513.6-720.6c17.2-93.9,132.2-208.9,226.1-226.1c151.4-28.8,197.4-3.8,448.4,243.4l233.8,231.9l5.8-605.6c5.7-576.8,7.7-607.5,46-657.3c74.7-101.6,136.1-132.2,256.8-132.2c120.7,0,182,30.7,256.8,132.2c38.3,49.8,40.2,80.5,46,657.3l5.7,605.6l233.8-231.9c251.1-247.2,297-272.1,448.4-243.4c93.9,17.2,208.9,132.2,226.1,226.1c32.6,168.6,28.7,174.4-523.2,728.2c-281.7,283.6-534.7,527-563.4,542.3C5061.2-2323.2,4929-2327,4860-2371.1z"/>
</g>
<path id="battery" d="M748.5,910.6c0,21.5-7.7,40.1-23.1,55.8C710,982.1,688.7,990,661.5,990H346c-30.8,0-54.2-8.6-70.3-25.8c-16.1-17.2-24.2-38.6-24.2-64.4V218.2c0-19.3,6.4-35.4,19.3-48.3c12.9-12.9,31.5-19.3,55.8-19.3h348.8c25.8,0,44.4,6.4,55.8,19.3c11.4,12.9,17.2,29.7,17.2,50.5V910.6z M411.4,806.5v53.7h177.1v-53.7H411.4z M473.7,239.7v61.2h-62.3v53.7h62.3v62.3h52.6v-62.3h62.3v-53.7h-62.3v-61.2H473.7L473.7,239.7z M500.5,10c7.2,0.7,14.3,1.1,21.5,1.1c5.7,0,12.2,0.2,19.3,0.5c7.2,0.4,14,0.5,20.4,0.5c12.9,0.7,21.3,4.7,25.2,11.8c3.9,7.2,5.9,17.2,5.9,30.1v35.4v15H406.1V63.7c0-5.7,0.4-13.1,1.1-22c0.7-8.9,3.9-15.9,9.7-20.9C423.3,15,434,12,449,11.6C464,11.3,481.2,10.7,500.5,10z"/>

<path id="drop" d="M500,10c0,0-334,461.5-334,646c0,184.5,149.5,334,334,334c184.5,0,334-149.6,334-334C834,471.5,500,10,500,10z M283.7,515.6c0,0-8.2,162.8,167.4,377.9C451.1,893.5,179.1,771.4,283.7,515.6z"/>

<g id="barometer"><path d="M4635.1,5010C2678.6,4852.7,1011.8,3571.4,367.3,1730C73.8,886,20.1-69.2,215.7-955.4C624.3-2793,2085.9-4254.7,3925.4-4665.2c698.2-155.4,1450.1-155.4,2148.3,0C7911.3-4254.7,9373-2793,9783.5-955.4c155.4,698.2,155.4,1450.1,0,2148.3C9373,3032.4,7911.3,4494.1,6073.8,4902.6C5630.7,5000.4,5055.2,5044.6,4635.1,5010z M5651.8,4578.4c801.8-124.7,1538.4-448.8,2165.6-949.5c882.3-705.9,1469.3-1732.1,1645.8-2877.2c46-305,46-961,0-1266c-74.8-489.1-209.1-913-425.8-1352.3c-659.9-1337-1910.5-2248.1-3404.7-2478.3c-306.9-46-961-46-1266,1.9c-821,126.6-1559.5,448.8-2186.7,953.3C1289.9-2674.1,716.4-1669,536-514.3c-46,305-46,959.1,0,1266c153.5,991.7,587,1852.9,1283.3,2547.3c763.4,765.4,1691.8,1196.9,2825.4,1315.9C4807.8,4632.2,5458,4607.2,5651.8,4578.4z"/><path d="M4731.1,3780.5c-1548-113.2-2867.6-1191.2-3270.5-2670.1C1320.6,590.6,1288-7.9,1374.3-500.8c118.9-673.3,420.1-1300.5,880.4-1824.2c182.2-207.2,243.6-241.7,352.9-197.6c165,71,170.7,237.9,13.4,387.5c-174.6,165-406.7,496.8-556.3,794.1c-460.4,918.8-458.4,2002.5,3.8,2927.1c594.6,1185.4,1877.9,1910.5,3176.4,1797.3c458.4-40.3,807.6-138.1,1225.7-343.4c282-136.2,324.2-141.9,416.2-49.9c38.4,38.4,49.9,69,49.9,134.3c0,115.1-46,157.3-331.8,293.5c-448.9,214.8-861.3,326.1-1356.1,364.4c-141.9,9.6-272.4,17.3-287.7,17.3C4945.9,3797.8,4842.3,3790.1,4731.1,3780.5z"/><path d="M6474.7,2155.8c-615.7-450.8-1129.8-826.7-1143.2-834.4c-11.5-7.7-103.6-3.8-203.3,9.6c-301.1,38.4-586.9-38.4-849.7-224.4c-399-285.8-592.7-847.8-450.8-1315.9l44.1-147.7l-251.3-450.8c-282-508.3-289.6-535.2-186.1-638.7c103.6-103.6,130.4-95.9,638.7,186.1l450.8,251.3l147.7-44.1c182.2-55.6,450.8-59.5,633-9.6c429.7,117,759.6,445,876.6,876.6c30.7,113.2,36.5,299.2,21.1,583.1c-3.8,47.9,132.3,243.6,819.1,1175.8c918.8,1252.6,895.8,1214.2,773,1337C7665.8,3038.2,7725.3,3072.7,6474.7,2155.8z M6695.2,1804.8c-5.8-11.5-218.7-303.1-471.9-646.4c-516-704-473.8-611.9-416.2-909.2c118.9-615.7-525.6-1129.8-1116.4-888.1c-65.2,26.9-145.8,48-178.4,48c-34.5,0-130.4-40.3-230.2-95.9c-94-53.7-174.6-94-178.4-90.2c-3.8,3.8,36.5,84.4,90.2,178.4c55.6,99.7,95.9,195.6,95.9,230.2c0,32.6-21.1,113.2-48,178.4c-61.4,149.6-78.6,322.3-49.9,466.1c95.9,462.3,558.2,757.7,999.4,638.7c201.4-53.7,166.9-71,863.2,441.2c352.9,259,644.5,470,648.3,470S6702.9,1816.3,6695.2,1804.8z"/><path d="M4836.6,485.1C4514.3,335.5,4522-117.2,4850-253.4c257-107.4,552.4,92.1,552.4,372.1C5402.4,406.5,5095.5,604,4836.6,485.1z"/><path d="M7871.1,2006.2c-92.1-92.1-86.3-134.3,49.9-416.2c364.5-742.3,446.9-1496.2,249.4-2286.5c-122.8-493-400.9-1014.7-730.8-1371.5c-72.9-78.6-142-163-153.5-186.1c-57.5-107.4-1.9-234,120.8-274.3c97.8-32.6,170.7,13.4,345.3,211c855.5,966.8,1139.4,2347.8,736.6,3575.4c-88.2,268.5-280.1,679-351,750C8068.6,2077.2,7940.1,2075.3,7871.1,2006.2z"/><path d="M3467-1960.5c-95.9-53.7-95.9-55.6-97.8-984c0-633,5.8-880.4,23-916.9c44.1-95.9,193.7-136.2,280-74.8c84.4,59.5,90.2,88.2,99.7,650.3l9.6,535.2l128.5-172.6c132.3-176.5,186.1-218.7,283.9-218.7c71,0,140,59.5,268.5,237.9c57.5,78.6,111.3,145.8,120.8,145.8c7.7,0,13.4-241.7,13.4-539v-539l65.2-65.2c86.3-86.3,176.5-90.2,264.7-9.6l63.3,55.6l5.8,868.9c3.8,633,0,884.3-17.3,922.6c-53.7,130.4-197.6,168.8-301.1,82.5c-30.7-26.8-153.5-176.5-272.4-335.7C4286-2474.6,4184.4-2605,4176.7-2605c-5.8,1.9-111.3,136.2-232.1,299.2c-120.8,165-241.7,314.6-266.6,335.7C3626.2-1927.9,3534.1-1924.1,3467-1960.5z"/><path d="M5513.7-1962.5c-28.8-17.2-61.4-46-72.9-67.1c-11.5-23-19.2-354.9-19.2-924.6c0-972.5-3.8-943.7,113.2-993.6c38.4-15.3,147.7-21.1,351-15.3c276.2,5.8,301.2,9.6,402.8,59.5c326.1,161.1,441.2,583.1,237.8,882.4l-48,71l48,71c207.2,305,82.5,738.5-259,895.8c-76.7,34.5-128.5,40.3-395.1,44.1C5626.8-1933.7,5555.9-1939.4,5513.7-1962.5z M6129.4-2363.3c99.7-51.8,130.4-214.8,57.5-305c-47.9-63.3-151.5-94-276.2-86.3l-95.9,5.8l-5.8,207.2l-5.8,205.2h136.2C6020-2336.5,6096.8-2348,6129.4-2363.3z M6100.6-3169c115.1-48,159.2-168.8,103.6-289.6c-34.5-74.8-109.3-105.5-264.7-105.5h-134.3v197.6c0,109.3,5.8,205.2,13.4,211C5841.7-3132.5,6035.4-3142.1,6100.6-3169z"/></g>


 </defs>

 <g transform="rotate(90 101.21 102.57)" font-family="Arial, Helvetica, sans-serif">
  <use transform="matrix(2,0,0,2,9.199,11.638)" width="100%" height="100%" xlink:href="##IC00"/>
  <text x="3.8588459" y="7.452085" font-size="5px">#NOW</text>
  <text x="157.63083" y="10.288924" font-size="6px" text-anchor="middle">Max:</text>
  <text x="173.36656" y="25.485123" font-size="20px" text-anchor="end">#HI00</text>
  <text x="180.0032" y="20.644514" font-size="12px" text-anchor="middle">°C</text>
  <text x="157.40504" y="38.560116" font-size="6px" text-anchor="middle">Min:</text>
  <text x="174.45403" y="53.861382" font-size="20px" text-anchor="end">#LO00</text>
  <text x="180.25226" y="47.51899" font-size="12px" text-anchor="middle">°C</text>
  <text x="125.123528" y="55.521215" font-size="52px" text-anchor="end">#TN</text>
  <text x="130.43762" y="21.822582" font-size="15px" text-anchor="middle">°C</text>
  <text x="3.0124087" y="74.918861" font-size="8px">#SUMNOW</text>
  <g transform="translate(-4.0654,-16.484)">
   <text x="14.0439" y="109.74013" font-size="6px" text-anchor="middle">#TM01</text>
   <use transform="matrix(.51675 0 0 .58578 6 113.18)" width="100%" height="100%" xlink:href="##IC01"/>
   <g font-size="5px" text-anchor="middle">
    <text x="15" y="138.25587">#TE01°C</text>
    <text x="15" y="144.6684">#PP01%</text>
    <text x="15" y="151.19797">#PA01mm</text>
   </g>
   <path d="m26.006 104.52v50.566h-0.28291v-50.566z"/>
  </g>
  <g transform="translate(18.365,-16.484)">
   <text x="14.6439" y="109.74013" font-size="6px" text-anchor="middle">#TM02</text>
   <use transform="matrix(.51675 0 0 .58578 6 113.18)" width="100%" height="100%" xlink:href="##IC02"/>
   <g font-size="5px" text-anchor="middle">
    <text x="15" y="138.25587">#TE02°C</text>
    <text x="15" y="144.6684">#PP02%</text>
    <text x="15" y="151.19797">#PA02mm</text>
   </g>
   <path d="m26.006 104.52v50.566h-0.28291v-50.566z"/>
  </g>
  <g transform="translate(40.795,-16.484)">
   <text x="14.6439" y="109.74013" font-size="6px" text-anchor="middle">#TM03</text>
   <use transform="matrix(.51675 0 0 .58578 6 113.18)" width="100%" height="100%" xlink:href="##IC03"/>
   <g font-size="5px" text-anchor="middle">
    <text x="15" y="138.25587">#TE03°C</text>
    <text x="15" y="144.6684">#PP03%</text>
    <text x="15" y="151.19797">#PA03mm</text>
   </g>
   <path d="m26.006 104.52v50.566h-0.28291v-50.566z"/>
  </g>
  <g transform="translate(63.225,-16.484)">
   <text x="14.6439" y="109.74013" font-size="6px" text-anchor="middle">#TM04</text>
   <use transform="matrix(.51675 0 0 .58578 6 113.18)" width="100%" height="100%" xlink:href="##IC04"/>
   <g font-size="5px" text-anchor="middle">
    <text x="15" y="138.25587">#TE04°C</text>
    <text x="15" y="144.6684">#PP04%</text>
    <text x="15" y="151.19797">#PA04mm</text>
   </g>
   <path d="m26.006 104.52v50.566h-0.28291v-50.566z"/>
  </g>
  <g transform="translate(85.655,-16.484)">
   <text x="14.6439" y="109.74013" font-size="6px" text-anchor="middle">#TM05</text>
   <use transform="matrix(.51675 0 0 .58578 6 113.18)" width="100%" height="100%" xlink:href="##IC05"/>
   <g font-size="5px" text-anchor="middle">
    <text x="15" y="138.25587">#TE05°C</text>
    <text x="15" y="144.6684">#PP05%</text>
    <text x="15" y="151.19797">#PA05mm</text>
   </g>
   <path d="m26.006 104.52v50.566h-0.28291v-50.566z"/>
  </g>
  <g transform="translate(108.09,-16.484)">
   <text x="14.6439" y="109.74013" font-size="6px" text-anchor="middle">#TM06</text>
   <use transform="matrix(.51675 0 0 .58578 6 113.18)" width="100%" height="100%" xlink:href="##IC06"/>
   <g font-size="5px" text-anchor="middle">
    <text x="15" y="138.25587">#TE06°C</text>
    <text x="15" y="144.6684">#PP06%</text>
    <text x="15" y="151.19797">#PA06mm</text>
   </g>
   <path d="m26.006 104.52v50.566h-0.28291v-50.566z"/>
  </g>
  <g transform="translate(130.52,-16.484)">
   <text x="14.6439" y="109.74013" font-size="6px" text-anchor="middle">#TM07</text>
   <use transform="matrix(.51675 0 0 .58578 6 113.18)" width="100%" height="100%" xlink:href="##IC07"/>
   <g font-size="5px" text-anchor="middle">
    <text x="15" y="138.25587">#TE07°C</text>
    <text x="15" y="144.6684">#PP07%</text>
    <text x="15" y="151.19797">#PA07mm</text>
   </g>
   <path d="m26.006 104.52v50.566h-0.28291v-50.566z"/>
  </g>
  <g transform="translate(152.95,-16.484)">
   <text x="14.6439" y="109.74013" font-size="6px" text-anchor="middle">#TM08</text>
   <use transform="matrix(.51675 0 0 .58578 6 113.18)" width="100%" height="100%" xlink:href="##IC08"/>
   <g font-size="5px" text-anchor="middle">
    <text x="15" y="138.25587">#TE08°C</text>
    <text x="15" y="144.6684">#PP08%</text>
    <text x="15" y="151.19797">#PA08mm</text>
   </g>
   <path d="m26.006 104.52v50.566h-0.28291v-50.566z"/>
  </g>
  <g transform="translate(175.38,-16.484)">
   <text x="14.6439" y="109.74013" font-size="6px" text-anchor="middle">#TM09</text>
   <use transform="matrix(.51675 0 0 .58578 6 113.18)" width="100%" height="100%" xlink:href="##IC09"/>
   <g font-size="5px" text-anchor="middle">
    <text x="15" y="138.25587">#TE09°C</text>
    <text x="15" y="144.6684">#PP09%</text>
    <text x="15" y="151.19797">#PA09mm</text>
   </g>
   <path d="m26.006 104.52v50.566h-0.28291v-50.566z"/>
  </g>
  <g transform="translate(197.81,-16.484)">
   <text x="14.6439" y="109.74013" font-size="6px" text-anchor="middle">#TM10</text>
   <use transform="matrix(.51675 0 0 .58578 6 113.18)" width="100%" height="100%" xlink:href="##IC10"/>
   <g font-size="5px" text-anchor="middle">
    <text x="15" y="138.25587">#TE10°C</text>
    <text x="15" y="144.6684">#PP10%</text>
    <text x="15" y="151.19797">#PA10mm</text>
   </g>
   <path d="m26.006 104.52v50.566h-0.28291v-50.566z"/>
  </g>
  <g transform="translate(220.24,-16.484)">
   <text x="14.6439" y="109.74013" font-size="6px" text-anchor="middle">#TM11</text>
   <use transform="matrix(.51675 0 0 .58578 6 113.18)" width="100%" height="100%" xlink:href="##IC11"/>
   <g font-size="5px" text-anchor="middle">
    <text x="15" y="138.25587">#TE11°C</text>
    <text x="15" y="144.6684">#PP11%</text>
    <text x="15" y="151.19797">#PA11mm</text>
   </g>
   <path d="m26.006 104.52v50.566h-0.28291v-50.566z"/>
  </g>
  <g transform="translate(242.67,-16.484)">
   <text x="14.6439" y="109.74013" font-size="6px" text-anchor="middle">#TM12</text>
   <use transform="matrix(.51675 0 0 .58578 6 113.18)" width="100%" height="100%" xlink:href="##IC12"/>
   <g font-size="5px" text-anchor="middle">
    <text x="15" y="138.25587">#TE12°C</text>
    <text x="15" y="144.6684">#PP12%</text>
    <text x="15" y="151.19797">#PA12mm</text>
   </g>
  </g>
  <text x="3.1091475" y="84.081184" font-size="6px">#SUMHR</text>
  <text x="4.0020075" y="201.26326" font-size="6px">#SUMDAILY</text>
  <use transform="translate(200,12.5) scale(0.0008,-0.0008)" width="100%" height="100%" xlink:href="#sunrise"/>
  <use transform="translate(200,22.5) scale(0.0008,-0.0008)" width="100%" height="100%" xlink:href="#sunset"/>
  <use transform="translate(200,33) scale(0.008)" width="100%" height="100%" xlink:href="#drop"/>
  <use transform="translate(200,51) scale(0.0008,-0.0008)" width="100%" height="100%" xlink:href="#barometer"/>
  <use transform="translate(200,57) scale(0.008)" width="100%" height="100%" xlink:href="#battery"/>
  <g font-size="10px">
   <text x="215" y="15">#SR</text>
   <text x="215" y="25">#SS</text>
   <text x="215" y="35">#DP0%</text>
   <text x="215" y="45">#DM0mm</text>
   <text x="215" y="55">#DBPmbar</text>
   <text x="215" y="65">#BAT%</text>
  </g>
 </g>
 <g transform="rotate(90 124.57 86.766)" font-family="Arial, Helvetica, sans-serif">
  <g transform="translate(40.312,47.307)">
   <text x="14.6439" y="107.74013" font-size="7px" text-anchor="middle">#DA1</text>
   <use transform="matrix(.67549 0 0 .76572 4.9336 109.26)" width="100%" height="100%" xlink:href="##DI1"/>
   <g font-size="7px" text-anchor="middle">
    <text x="15" y="138.25587">#DL1..#DH1°C</text>
    <text x="15" y="145.61311">#DP1%</text>
    <text x="15" y="152.49748">#DM1mm</text>
    </g>
  </g>
 </g>
 <path d="m60.346 37.75h-50.566v-0.28291h50.566z"/>
 <g transform="rotate(90 105.21 106.12)" font-family="Arial, Helvetica, sans-serif">
  <g transform="translate(40.312,47.307)">
   <text x="14.6439" y="107.74013" font-size="7px" text-anchor="middle">#DA2</text>
   <use transform="matrix(.67549 0 0 .76572 4.9336 109.26)" width="100%" height="100%" xlink:href="##DI2"/>
   <g font-size="7px" text-anchor="middle">
    <text x="15" y="138.25587">#DL2..#DH2°C</text>
    <text x="15" y="145.61311">#DP2%</text>
    <text x="15" y="152.49748">#DM2mm</text>
    </g>
  </g>
 </g>
 <path d="m60.346 76.462h-50.566v-0.28291h50.566z"/>
 <g transform="rotate(90 85.854 125.48)" font-family="Arial, Helvetica, sans-serif">
  <g transform="translate(40.312,47.307)">
   <text x="14.6439" y="107.74013" font-size="7px" text-anchor="middle">#DA3</text>
   <use transform="matrix(.67549 0 0 .76572 4.9336 109.26)" width="100%" height="100%" xlink:href="##DI3"/>
   <g font-size="7px" text-anchor="middle">
    <text x="15" y="138.25587">#DL3..#DH3°C</text>
    <text x="15" y="145.61311">#DP3%</text>
    <text x="15" y="152.49748">#DM3mm</text>
    </g>
  </g>
 </g>
 <path d="m60.346 115.18h-50.566v-0.2829h50.566z"/>
 <g transform="rotate(90 66.498 144.84)" font-family="Arial, Helvetica, sans-serif">
  <g transform="translate(40.312,47.307)">
   <text x="14.6439" y="107.74013" font-size="7px" text-anchor="middle">#DA4</text>
   <use transform="matrix(.67549 0 0 .76572 4.9336 109.26)" width="100%" height="100%" xlink:href="##DI4"/>
   <g font-size="7px" text-anchor="middle">
    <text x="15" y="138.25587">#DL4..#DH4°C</text>
    <text x="15" y="145.61311">#DP4%</text>
    <text x="15" y="152.49748">#DM4mm</text>
    </g>
  </g>
 </g>
 <path d="m60.346 153.89h-50.566v-0.2829h50.566z"/>
 <g transform="rotate(90 47.141 164.19)" font-family="Arial, Helvetica, sans-serif">
  <g transform="translate(40.312,47.307)">
   <text x="14.6439" y="107.74013" font-size="7px" text-anchor="middle">#DA5</text>
   <use transform="matrix(.67549 0 0 .76572 4.9336 109.26)" width="100%" height="100%" xlink:href="##DI5"/>
   <g font-size="7px" text-anchor="middle">
    <text x="15" y="138.25587">#DL5..#DH5°C</text>
    <text x="15" y="145.61311">#DP5%</text>
    <text x="15" y="152.49748">#DM5mm</text>
    </g>
  </g>
 </g>
 <path d="m60.346 192.6h-50.566v-0.2829h50.566z"/>
 <g transform="rotate(90 27.786 183.55)" font-family="Arial, Helvetica, sans-serif">
  <g transform="translate(40.312,47.307)">
   <text x="14.6439" y="107.74013" font-size="7px" text-anchor="middle">#DA6</text>
   <use transform="matrix(.67549 0 0 .76572 4.9336 109.26)" width="100%" height="100%" xlink:href="##DI6"/>
   <g font-size="7px" text-anchor="middle">
    <text x="15" y="138.25587">#DL6..#DH6°C</text>
    <text x="15" y="145.61311">#DP6%</text>
    <text x="15" y="152.49748">#DM6mm</text>
    </g>
  </g>
 </g>
 <path d="m60.346 231.31h-50.566v-0.28291h50.566z"/>
 <g transform="rotate(90 8.4261 202.91)" font-family="Arial, Helvetica, sans-serif">
  <g transform="translate(40.312,47.307)">
   <text x="14.6439" y="107.74013" font-size="7px" text-anchor="middle">#DA7</text>
   <use transform="matrix(.67549 0 0 .76572 4.9336 109.26)" width="100%" height="100%" xlink:href="##DI7"/>
   <g font-size="7px" text-anchor="middle">
    <text x="15" y="138.25587">#DL7..#DH7°C</text>
    <text x="15" y="145.61311">#DP7%</text>
    <text x="15" y="152.49748">#DM7mm</text>
    </g>
  </g>
 </g>
</svg>
